<svg width="22" height="22" viewBox="0 0 22 22" fill="none" xmlns="http://www.w3.org/2000/svg">
<path d="M17.1136 6.07207C15.9823 5.57231 14.7574 5.20958 13.4815 5C13.4591 5.0003 13.4377 5.00899 13.422 5.02418C13.2689 5.29018 13.0902 5.63679 12.9712 5.90279C11.6178 5.70946 10.2416 5.70946 8.88828 5.90279C8.7692 5.62873 8.59057 5.29018 8.42896 5.02418C8.42045 5.00806 8.39494 5 8.36942 5C7.09352 5.20958 5.87717 5.57231 4.73736 6.07207C4.72886 6.07207 4.72035 6.08013 4.71185 6.08819C2.39822 9.36887 1.76027 12.5609 2.07499 15.7207C2.07499 15.7368 2.0835 15.7529 2.10051 15.761C3.63159 16.825 5.10312 17.4698 6.55764 17.897C6.58316 17.9051 6.60868 17.897 6.61719 17.8809C6.95742 17.4376 7.26364 16.9701 7.52733 16.4784C7.54434 16.4461 7.52733 16.4139 7.4933 16.4058C7.00846 16.2285 6.54914 16.0189 6.09832 15.7771C6.0643 15.761 6.0643 15.7126 6.08982 15.6884C6.18338 15.6239 6.27695 15.5514 6.37051 15.4869C6.38752 15.4708 6.41304 15.4708 6.43005 15.4788C9.35611 16.7444 12.5118 16.7444 15.4039 15.4788C15.4209 15.4708 15.4464 15.4708 15.4634 15.4869C15.557 15.5595 15.6505 15.6239 15.7441 15.6965C15.7781 15.7207 15.7781 15.769 15.7356 15.7852C15.2933 16.035 14.8255 16.2366 14.3406 16.4139C14.3066 16.4219 14.2981 16.4622 14.3066 16.4864C14.5788 16.9781 14.885 17.4456 15.2167 17.889C15.2423 17.897 15.2678 17.9051 15.2933 17.897C16.7563 17.4698 18.2278 16.825 19.7589 15.761C19.7759 15.7529 19.7844 15.7368 19.7844 15.7207C20.1587 12.0692 19.1635 8.90136 17.1476 6.08819C17.1391 6.08013 17.1306 6.07207 17.1136 6.07207ZM7.96964 13.7942C7.09352 13.7942 6.36201 13.0284 6.36201 12.0853C6.36201 11.1422 7.07651 10.3765 7.96964 10.3765C8.87127 10.3765 9.58577 11.1503 9.57727 12.0853C9.57727 13.0284 8.86276 13.7942 7.96964 13.7942ZM13.8983 13.7942C13.0222 13.7942 12.2907 13.0284 12.2907 12.0853C12.2907 11.1422 13.0052 10.3765 13.8983 10.3765C14.7999 10.3765 15.5144 11.1503 15.5059 12.0853C15.5059 13.0284 14.7999 13.7942 13.8983 13.7942Z" fill="#686868"/>
</svg>
