<svg width="22" height="22" viewBox="0 0 22 22" fill="none" xmlns="http://www.w3.org/2000/svg">
<path d="M14.3635 10.5274L18.977 6.15398V14.8509L14.3635 10.5274ZM8.41877 11.2681L10.0388 12.8025C10.2931 13.0382 10.6246 13.1806 10.9869 13.1806H10.9996H11.0094C11.3724 13.1806 11.7039 13.0374 11.9612 12.8001L11.9589 12.8017L13.579 11.2672L18.5037 15.8821H3.49631L8.41877 11.2681ZM3.48956 5.11709H18.5127L11.2966 11.9555C11.2159 12.0262 11.1152 12.0644 11.0116 12.0635H11.0011H10.9914C10.8875 12.0643 10.7865 12.0259 10.7056 11.9547L10.7064 11.9555L3.48956 5.11709ZM3.02379 6.15316L7.63648 10.5266L3.02379 14.8477V6.15316ZM19.2245 4.15549C19.0445 4.05729 18.8329 4 18.6087 4H3.39431C3.17701 4.00094 2.9628 4.05608 2.76803 4.16122L2.77628 4.15713C2.54367 4.28274 2.34779 4.47666 2.21065 4.71708C2.07351 4.95751 2.00056 5.23491 2 5.5181V15.4794C2.0004 15.8826 2.14735 16.2691 2.4086 16.5542C2.66986 16.8392 3.02409 16.9996 3.39356 17H18.6064C18.9759 16.9996 19.3301 16.8392 19.5914 16.5542C19.8527 16.2691 19.9996 15.8826 20 15.4794V5.5181C20 4.92314 19.6857 4.40755 19.2282 4.15958L19.22 4.15549H19.2245Z" fill="#686868"/>
<path d="M14.3635 10.5274L18.977 6.15398V14.8509L14.3635 10.5274ZM8.41877 11.2681L10.0388 12.8025C10.2931 13.0382 10.6246 13.1806 10.9869 13.1806H10.9996H11.0094C11.3724 13.1806 11.7039 13.0374 11.9612 12.8001L11.9589 12.8017L13.579 11.2672L18.5037 15.8821H3.49631L8.41877 11.2681ZM3.48956 5.11709H18.5127L11.2966 11.9555C11.2159 12.0262 11.1152 12.0644 11.0116 12.0635H11.0011H10.9914C10.8875 12.0643 10.7865 12.0259 10.7056 11.9547L10.7064 11.9555L3.48956 5.11709ZM3.02379 6.15316L7.63648 10.5266L3.02379 14.8477V6.15316ZM19.2245 4.15549C19.0445 4.05729 18.8329 4 18.6087 4H3.39431C3.17701 4.00094 2.9628 4.05608 2.76803 4.16122L2.77628 4.15713C2.54367 4.28274 2.34779 4.47666 2.21065 4.71708C2.07351 4.95751 2.00056 5.23491 2 5.5181V15.4794C2.0004 15.8826 2.14735 16.2691 2.4086 16.5542C2.66986 16.8392 3.02409 16.9996 3.39356 17H18.6064C18.9759 16.9996 19.3301 16.8392 19.5914 16.5542C19.8527 16.2691 19.9996 15.8826 20 15.4794V5.5181C20 4.92314 19.6857 4.40755 19.2282 4.15958L19.22 4.15549H19.2245Z" fill="#686868"/>
</svg>
