<svg width="22" height="22" viewBox="0 0 22 22" fill="none" xmlns="http://www.w3.org/2000/svg">
<path d="M10.6724 3C9.66486 3 8.66717 3.20338 7.73631 3.59853C6.80545 3.99367 5.95965 4.57285 5.2472 5.30299C3.80834 6.77757 3 8.77753 3 10.8629C3 14.3383 5.20198 17.2869 8.24793 18.3327C8.63155 18.3956 8.75431 18.1518 8.75431 17.9395V16.6107C6.62905 17.0824 6.17638 15.557 6.17638 15.557C5.82345 14.645 5.32474 14.4012 5.32474 14.4012C4.62655 13.9137 5.37845 13.9294 5.37845 13.9294C6.14569 13.9845 6.55233 14.7393 6.55233 14.7393C7.21983 15.9345 8.34767 15.5806 8.785 15.3919C8.85405 14.8808 9.05353 14.5349 9.26836 14.3383C7.56509 14.1417 5.77741 13.4655 5.77741 10.4698C5.77741 9.59697 6.06897 8.89717 6.56767 8.33891C6.49095 8.14233 6.22241 7.32459 6.6444 6.2631C6.6444 6.2631 7.28888 6.0508 8.75431 7.06512C9.36043 6.89213 10.0203 6.80564 10.6724 6.80564C11.3246 6.80564 11.9844 6.89213 12.5905 7.06512C14.0559 6.0508 14.7004 6.2631 14.7004 6.2631C15.1224 7.32459 14.8539 8.14233 14.7772 8.33891C15.2759 8.89717 15.5674 9.59697 15.5674 10.4698C15.5674 13.4734 13.7721 14.1339 12.0611 14.3304C12.3373 14.5742 12.5905 15.0538 12.5905 15.7851V17.9395C12.5905 18.1518 12.7133 18.4034 13.1046 18.3327C16.1505 17.279 18.3448 14.3383 18.3448 10.8629C18.3448 9.83033 18.1464 8.80787 17.7608 7.8539C17.3752 6.89993 16.8101 6.03313 16.0976 5.30299C15.3852 4.57285 14.5394 3.99367 13.6085 3.59853C12.6777 3.20338 11.68 3 10.6724 3Z" fill="#686868"/>
<path d="M10.6724 3C9.66486 3 8.66717 3.20338 7.73631 3.59853C6.80545 3.99367 5.95965 4.57285 5.2472 5.30299C3.80834 6.77757 3 8.77753 3 10.8629C3 14.3383 5.20198 17.2869 8.24793 18.3327C8.63155 18.3956 8.75431 18.1518 8.75431 17.9395V16.6107C6.62905 17.0824 6.17638 15.557 6.17638 15.557C5.82345 14.645 5.32474 14.4012 5.32474 14.4012C4.62655 13.9137 5.37845 13.9294 5.37845 13.9294C6.14569 13.9845 6.55233 14.7393 6.55233 14.7393C7.21983 15.9345 8.34767 15.5806 8.785 15.3919C8.85405 14.8808 9.05353 14.5349 9.26836 14.3383C7.56509 14.1417 5.77741 13.4655 5.77741 10.4698C5.77741 9.59697 6.06897 8.89717 6.56767 8.33891C6.49095 8.14233 6.22241 7.32459 6.6444 6.2631C6.6444 6.2631 7.28888 6.0508 8.75431 7.06512C9.36043 6.89213 10.0203 6.80564 10.6724 6.80564C11.3246 6.80564 11.9844 6.89213 12.5905 7.06512C14.0559 6.0508 14.7004 6.2631 14.7004 6.2631C15.1224 7.32459 14.8539 8.14233 14.7772 8.33891C15.2759 8.89717 15.5674 9.59697 15.5674 10.4698C15.5674 13.4734 13.7721 14.1339 12.0611 14.3304C12.3373 14.5742 12.5905 15.0538 12.5905 15.7851V17.9395C12.5905 18.1518 12.7133 18.4034 13.1046 18.3327C16.1505 17.279 18.3448 14.3383 18.3448 10.8629C18.3448 9.83033 18.1464 8.80787 17.7608 7.8539C17.3752 6.89993 16.8101 6.03313 16.0976 5.30299C15.3852 4.57285 14.5394 3.99367 13.6085 3.59853C12.6777 3.20338 11.68 3 10.6724 3Z" fill="#686868"/>
</svg>
