<svg width="22" height="22" viewBox="0 0 22 22" fill="none" xmlns="http://www.w3.org/2000/svg">
<path d="M8.16 4H14.1848C16.48 4 18.3448 5.86483 18.3448 8.16V14.1848C18.3448 15.2881 17.9065 16.3462 17.1264 17.1264C16.3462 17.9065 15.2881 18.3448 14.1848 18.3448H8.16C5.86483 18.3448 4 16.48 4 14.1848V8.16C4 7.0567 4.43828 5.99859 5.21844 5.21844C5.99859 4.43828 7.0567 4 8.16 4ZM8.01655 5.43448C7.33174 5.43448 6.67499 5.70652 6.19075 6.19075C5.70652 6.67499 5.43448 7.33174 5.43448 8.01655V14.3283C5.43448 15.7556 6.58924 16.9103 8.01655 16.9103H14.3283C15.0131 16.9103 15.6698 16.6383 16.1541 16.1541C16.6383 15.6698 16.9103 15.0131 16.9103 14.3283V8.01655C16.9103 6.58924 15.7556 5.43448 14.3283 5.43448H8.01655ZM14.9379 6.51034C15.1757 6.51034 15.4038 6.6048 15.5719 6.77294C15.74 6.94107 15.8345 7.16912 15.8345 7.4069C15.8345 7.64468 15.74 7.87272 15.5719 8.04085C15.4038 8.20899 15.1757 8.30345 14.9379 8.30345C14.7002 8.30345 14.4721 8.20899 14.304 8.04085C14.1358 7.87272 14.0414 7.64468 14.0414 7.4069C14.0414 7.16912 14.1358 6.94107 14.304 6.77294C14.4721 6.6048 14.7002 6.51034 14.9379 6.51034ZM11.1724 7.58621C12.1235 7.58621 13.0357 7.96404 13.7082 8.63658C14.3808 9.30913 14.7586 10.2213 14.7586 11.1724C14.7586 12.1235 14.3808 13.0357 13.7082 13.7082C13.0357 14.3808 12.1235 14.7586 11.1724 14.7586C10.2213 14.7586 9.30913 14.3808 8.63658 13.7082C7.96404 13.0357 7.58621 12.1235 7.58621 11.1724C7.58621 10.2213 7.96404 9.30913 8.63658 8.63658C9.30913 7.96404 10.2213 7.58621 11.1724 7.58621ZM11.1724 9.02069C10.6017 9.02069 10.0544 9.24739 9.65092 9.65092C9.24739 10.0544 9.02069 10.6017 9.02069 11.1724C9.02069 11.7431 9.24739 12.2904 9.65092 12.6939C10.0544 13.0974 10.6017 13.3241 11.1724 13.3241C11.7431 13.3241 12.2904 13.0974 12.6939 12.6939C13.0974 12.2904 13.3241 11.7431 13.3241 11.1724C13.3241 10.6017 13.0974 10.0544 12.6939 9.65092C12.2904 9.24739 11.7431 9.02069 11.1724 9.02069Z" fill="#686868"/>
<path d="M8.16 4H14.1848C16.48 4 18.3448 5.86483 18.3448 8.16V14.1848C18.3448 15.2881 17.9065 16.3462 17.1264 17.1264C16.3462 17.9065 15.2881 18.3448 14.1848 18.3448H8.16C5.86483 18.3448 4 16.48 4 14.1848V8.16C4 7.0567 4.43828 5.99859 5.21844 5.21844C5.99859 4.43828 7.0567 4 8.16 4ZM8.01655 5.43448C7.33174 5.43448 6.67499 5.70652 6.19075 6.19075C5.70652 6.67499 5.43448 7.33174 5.43448 8.01655V14.3283C5.43448 15.7556 6.58924 16.9103 8.01655 16.9103H14.3283C15.0131 16.9103 15.6698 16.6383 16.1541 16.1541C16.6383 15.6698 16.9103 15.0131 16.9103 14.3283V8.01655C16.9103 6.58924 15.7556 5.43448 14.3283 5.43448H8.01655ZM14.9379 6.51034C15.1757 6.51034 15.4038 6.6048 15.5719 6.77294C15.74 6.94107 15.8345 7.16912 15.8345 7.4069C15.8345 7.64468 15.74 7.87272 15.5719 8.04085C15.4038 8.20899 15.1757 8.30345 14.9379 8.30345C14.7002 8.30345 14.4721 8.20899 14.304 8.04085C14.1358 7.87272 14.0414 7.64468 14.0414 7.4069C14.0414 7.16912 14.1358 6.94107 14.304 6.77294C14.4721 6.6048 14.7002 6.51034 14.9379 6.51034ZM11.1724 7.58621C12.1235 7.58621 13.0357 7.96404 13.7082 8.63658C14.3808 9.30913 14.7586 10.2213 14.7586 11.1724C14.7586 12.1235 14.3808 13.0357 13.7082 13.7082C13.0357 14.3808 12.1235 14.7586 11.1724 14.7586C10.2213 14.7586 9.30913 14.3808 8.63658 13.7082C7.96404 13.0357 7.58621 12.1235 7.58621 11.1724C7.58621 10.2213 7.96404 9.30913 8.63658 8.63658C9.30913 7.96404 10.2213 7.58621 11.1724 7.58621ZM11.1724 9.02069C10.6017 9.02069 10.0544 9.24739 9.65092 9.65092C9.24739 10.0544 9.02069 10.6017 9.02069 11.1724C9.02069 11.7431 9.24739 12.2904 9.65092 12.6939C10.0544 13.0974 10.6017 13.3241 11.1724 13.3241C11.7431 13.3241 12.2904 13.0974 12.6939 12.6939C13.0974 12.2904 13.3241 11.7431 13.3241 11.1724C13.3241 10.6017 13.0974 10.0544 12.6939 9.65092C12.2904 9.24739 11.7431 9.02069 11.1724 9.02069Z" fill="#686868"/>
</svg>
