<svg width="22" height="22" viewBox="0 0 22 22" fill="none" xmlns="http://www.w3.org/2000/svg">
<path d="M10.7241 4C6.46041 4 3 7.21324 3 11.1724C3 15.1316 6.46041 18.3448 10.7241 18.3448C14.9879 18.3448 18.4483 15.1316 18.4483 11.1724C18.4483 7.21324 14.9879 4 10.7241 4ZM14.3081 8.87724C14.1923 10.0105 13.6902 12.7647 13.4353 14.0342C13.3272 14.5721 13.1109 14.7514 12.9101 14.773C12.4621 14.8088 12.1222 14.5004 11.6897 14.235C11.0099 13.819 10.6237 13.5608 9.96717 13.1592C9.20248 12.693 9.69683 12.4348 10.1371 12.0188C10.253 11.9112 12.2303 10.24 12.269 10.0894C12.2743 10.0666 12.2736 10.0429 12.2669 10.0204C12.2602 9.99788 12.2476 9.97725 12.2303 9.96028C12.184 9.92441 12.1222 9.93876 12.0681 9.94593C11.9986 9.96028 10.9172 10.6273 8.80855 11.947C8.49959 12.1407 8.22152 12.2411 7.97434 12.2339C7.69628 12.2268 7.17103 12.0905 6.7771 11.9686C6.29048 11.8251 5.912 11.7462 5.9429 11.4952C5.95834 11.3661 6.15145 11.237 6.51448 11.1007C8.76993 10.1898 10.2684 9.58731 11.0177 9.30041C13.165 8.46841 13.6052 8.32497 13.8988 8.32497C13.9606 8.32497 14.1073 8.33931 14.2 8.41103C14.2772 8.46841 14.3004 8.54731 14.3081 8.60469C14.3004 8.64772 14.3159 8.77683 14.3081 8.87724Z" fill="#686868"/>
<path d="M10.7241 4C6.46041 4 3 7.21324 3 11.1724C3 15.1316 6.46041 18.3448 10.7241 18.3448C14.9879 18.3448 18.4483 15.1316 18.4483 11.1724C18.4483 7.21324 14.9879 4 10.7241 4ZM14.3081 8.87724C14.1923 10.0105 13.6902 12.7647 13.4353 14.0342C13.3272 14.5721 13.1109 14.7514 12.9101 14.773C12.4621 14.8088 12.1222 14.5004 11.6897 14.235C11.0099 13.819 10.6237 13.5608 9.96717 13.1592C9.20248 12.693 9.69683 12.4348 10.1371 12.0188C10.253 11.9112 12.2303 10.24 12.269 10.0894C12.2743 10.0666 12.2736 10.0429 12.2669 10.0204C12.2602 9.99788 12.2476 9.97725 12.2303 9.96028C12.184 9.92441 12.1222 9.93876 12.0681 9.94593C11.9986 9.96028 10.9172 10.6273 8.80855 11.947C8.49959 12.1407 8.22152 12.2411 7.97434 12.2339C7.69628 12.2268 7.17103 12.0905 6.7771 11.9686C6.29048 11.8251 5.912 11.7462 5.9429 11.4952C5.95834 11.3661 6.15145 11.237 6.51448 11.1007C8.76993 10.1898 10.2684 9.58731 11.0177 9.30041C13.165 8.46841 13.6052 8.32497 13.8988 8.32497C13.9606 8.32497 14.1073 8.33931 14.2 8.41103C14.2772 8.46841 14.3004 8.54731 14.3081 8.60469C14.3004 8.64772 14.3159 8.77683 14.3081 8.87724Z" fill="#686868"/>
</svg>
