<svg width="22" height="22" viewBox="0 0 22 22" fill="none" xmlns="http://www.w3.org/2000/svg">
<path fill-rule="evenodd" clip-rule="evenodd" d="M14.0396 3.04313C14.3998 2.97541 14.7705 2.98756 15.1256 3.07875C15.4827 3.17045 15.8152 3.33985 16.0993 3.57483C16.3834 3.80982 16.6121 4.10461 16.7691 4.43818C16.9262 4.77174 17.0077 5.13586 17.0078 5.50454V6.07351C18.1438 6.277 19.006 7.27021 19.006 8.46478V15.7531C19.006 17.0948 17.9183 18.1825 16.5766 18.1825H4.42944C3.08771 18.1825 2.00002 17.0948 2.00002 15.7531V9.07295H2V7.21311V7.21292C1.9997 6.6297 2.20289 6.06463 2.57455 5.61515C2.9463 5.16556 3.46328 4.85979 4.03635 4.75058L4.04786 4.7485L14.0396 3.04313ZM15.7931 5.50493V6.03536H4.42944C4.22451 6.03536 4.02549 6.06073 3.83538 6.10851C3.96473 6.02996 4.10783 5.97418 4.25855 5.94482L14.2493 4.23961L14.2608 4.23753C14.4474 4.20197 14.6395 4.20804 14.8235 4.25528C15.0074 4.30252 15.1787 4.38978 15.325 4.51084C15.4714 4.63189 15.5892 4.78376 15.6701 4.95559C15.751 5.12737 15.793 5.31487 15.7931 5.50473V5.50493ZM4.42944 7.25007C3.75858 7.25007 3.21473 7.79392 3.21473 8.46478V15.7531C3.21473 16.4239 3.75858 16.9678 4.42944 16.9678H16.5766C17.2474 16.9678 17.7913 16.4239 17.7913 15.7531V8.46478C17.7913 7.79392 17.2474 7.25007 16.5766 7.25007H4.42944ZM14.0796 13.1192C14.2794 13.2527 14.5143 13.324 14.7545 13.324C15.0767 13.324 15.3856 13.196 15.6134 12.9682C15.8412 12.7404 15.9692 12.4314 15.9692 12.1092C15.9692 11.869 15.898 11.6341 15.7645 11.4344C15.631 11.2346 15.4413 11.0789 15.2194 10.987C14.9974 10.8951 14.7532 10.871 14.5175 10.9179C14.2819 10.9647 14.0655 11.0804 13.8956 11.2503C13.7257 11.4202 13.61 11.6366 13.5631 11.8723C13.5163 12.1079 13.5403 12.3521 13.6323 12.5741C13.7242 12.7961 13.8799 12.9858 14.0796 13.1192Z" fill="#686868"/>
<path fill-rule="evenodd" clip-rule="evenodd" d="M14.0396 3.04313C14.3998 2.97541 14.7705 2.98756 15.1256 3.07875C15.4827 3.17045 15.8152 3.33985 16.0993 3.57483C16.3834 3.80982 16.6121 4.10461 16.7691 4.43818C16.9262 4.77174 17.0077 5.13586 17.0078 5.50454V6.07351C18.1438 6.277 19.006 7.27021 19.006 8.46478V15.7531C19.006 17.0948 17.9183 18.1825 16.5766 18.1825H4.42944C3.08771 18.1825 2.00002 17.0948 2.00002 15.7531V9.07295H2V7.21311V7.21292C1.9997 6.6297 2.20289 6.06463 2.57455 5.61515C2.9463 5.16556 3.46328 4.85979 4.03635 4.75058L4.04786 4.7485L14.0396 3.04313ZM15.7931 5.50493V6.03536H4.42944C4.22451 6.03536 4.02549 6.06073 3.83538 6.10851C3.96473 6.02996 4.10783 5.97418 4.25855 5.94482L14.2493 4.23961L14.2608 4.23753C14.4474 4.20197 14.6395 4.20804 14.8235 4.25528C15.0074 4.30252 15.1787 4.38978 15.325 4.51084C15.4714 4.63189 15.5892 4.78376 15.6701 4.95559C15.751 5.12737 15.793 5.31487 15.7931 5.50473V5.50493ZM4.42944 7.25007C3.75858 7.25007 3.21473 7.79392 3.21473 8.46478V15.7531C3.21473 16.4239 3.75858 16.9678 4.42944 16.9678H16.5766C17.2474 16.9678 17.7913 16.4239 17.7913 15.7531V8.46478C17.7913 7.79392 17.2474 7.25007 16.5766 7.25007H4.42944ZM14.0796 13.1192C14.2794 13.2527 14.5143 13.324 14.7545 13.324C15.0767 13.324 15.3856 13.196 15.6134 12.9682C15.8412 12.7404 15.9692 12.4314 15.9692 12.1092C15.9692 11.869 15.898 11.6341 15.7645 11.4344C15.631 11.2346 15.4413 11.0789 15.2194 10.987C14.9974 10.8951 14.7532 10.871 14.5175 10.9179C14.2819 10.9647 14.0655 11.0804 13.8956 11.2503C13.7257 11.4202 13.61 11.6366 13.5631 11.8723C13.5163 12.1079 13.5403 12.3521 13.6323 12.5741C13.7242 12.7961 13.8799 12.9858 14.0796 13.1192Z" fill="#686868"/>
</svg>
