<svg width="22" height="22" viewBox="0 0 22 22" fill="none" xmlns="http://www.w3.org/2000/svg">
<path d="M11 1C9.02219 1 7.08879 1.58649 5.4443 2.6853C3.79981 3.78412 2.51809 5.3459 1.76121 7.17317C1.00433 9.00043 0.806299 11.0111 1.19215 12.9509C1.578 14.8907 2.53041 16.6725 3.92894 18.0711C5.32746 19.4696 7.10929 20.422 9.0491 20.8079C10.9889 21.1937 12.9996 20.9957 14.8268 20.2388C16.6541 19.4819 18.2159 18.2002 19.3147 16.5557C20.4135 14.9112 21 12.9778 21 11C21 9.68678 20.7413 8.38642 20.2388 7.17317C19.7363 5.95991 18.9997 4.85752 18.0711 3.92893C17.1425 3.00035 16.0401 2.26375 14.8268 1.7612C13.6136 1.25866 12.3132 1 11 1ZM11 19C9.41775 19 7.87104 18.5308 6.55544 17.6518C5.23985 16.7727 4.21447 15.5233 3.60897 14.0615C3.00347 12.5997 2.84504 10.9911 3.15372 9.43928C3.4624 7.88743 4.22433 6.46197 5.34315 5.34315C6.46197 4.22433 7.88743 3.4624 9.43928 3.15372C10.9911 2.84504 12.5997 3.00346 14.0615 3.60896C15.5233 4.21447 16.7727 5.23984 17.6518 6.55544C18.5308 7.87103 19 9.41775 19 11C19 13.1217 18.1572 15.1566 16.6569 16.6569C15.1566 18.1571 13.1217 19 11 19ZM6.5 9C6.5 8.70333 6.58798 8.41332 6.7528 8.16665C6.91762 7.91997 7.15189 7.72771 7.42598 7.61418C7.70007 7.50065 8.00167 7.47094 8.29264 7.52882C8.58361 7.5867 8.85089 7.72956 9.06067 7.93934C9.27044 8.14912 9.41331 8.41639 9.47118 8.70736C9.52906 8.99834 9.49936 9.29994 9.38582 9.57403C9.27229 9.84811 9.08003 10.0824 8.83336 10.2472C8.58669 10.412 8.29668 10.5 8 10.5C7.60218 10.5 7.22065 10.342 6.93934 10.0607C6.65804 9.77936 6.5 9.39782 6.5 9ZM15.5 9C15.5 9.29667 15.412 9.58668 15.2472 9.83335C15.0824 10.08 14.8481 10.2723 14.574 10.3858C14.2999 10.4994 13.9983 10.5291 13.7074 10.4712C13.4164 10.4133 13.1491 10.2704 12.9393 10.0607C12.7296 9.85088 12.5867 9.58361 12.5288 9.29264C12.4709 9.00166 12.5007 8.70006 12.6142 8.42597C12.7277 8.15189 12.92 7.91762 13.1666 7.7528C13.4133 7.58797 13.7033 7.5 14 7.5C14.3978 7.5 14.7794 7.65804 15.0607 7.93934C15.342 8.22064 15.5 8.60218 15.5 9ZM14.73 12.39C14.8302 12.454 14.9168 12.5371 14.9847 12.6348C15.0526 12.7324 15.1005 12.8425 15.1256 12.9587C15.1507 13.0749 15.1526 13.195 15.131 13.3119C15.1094 13.4289 15.0649 13.5404 15 13.64C14.5629 14.2918 13.9721 14.8259 13.2798 15.1952C12.5874 15.5646 11.8147 15.7578 11.03 15.7578C10.2453 15.7578 9.47261 15.5646 8.78024 15.1952C8.08786 14.8259 7.49706 14.2918 7.06 13.64C6.99368 13.5422 6.94728 13.4322 6.92345 13.3165C6.89962 13.2007 6.89882 13.0814 6.92111 12.9653C6.9434 12.8492 6.98833 12.7387 7.05334 12.64C7.11835 12.5413 7.20217 12.4563 7.3 12.39C7.398 12.3228 7.50845 12.276 7.62485 12.2522C7.74124 12.2284 7.86123 12.2281 7.97773 12.2514C8.09422 12.2747 8.20488 12.3211 8.30317 12.3878C8.40145 12.4546 8.48538 12.5403 8.55 12.64C8.82366 13.0526 9.19516 13.391 9.63137 13.6251C10.0676 13.8592 10.5549 13.9817 11.05 13.9817C11.5451 13.9817 12.0324 13.8592 12.4686 13.6251C12.9049 13.391 13.2764 13.0526 13.55 12.64C13.6794 12.4578 13.8726 12.3309 14.0912 12.2846C14.3098 12.2383 14.5378 12.2759 14.73 12.39Z" fill="#686868"/>
</svg>
