<svg width="22" height="22" viewBox="0 0 22 22" fill="none" xmlns="http://www.w3.org/2000/svg">
<path fill-rule="evenodd" clip-rule="evenodd" d="M9.70711 1.29289C9.31658 0.902369 8.68342 0.902369 8.29289 1.29289C7.90237 1.68342 7.90237 2.31658 8.29289 2.70711L9.58579 4H9C7.4087 4 5.88258 4.63214 4.75736 5.75736C3.63214 6.88258 3 8.4087 3 10V14.1716C2.5821 14.3193 2.19808 14.5593 1.87868 14.8787C1.31607 15.4413 1 16.2044 1 17C1 17.7957 1.31607 18.5587 1.87868 19.1213C2.44129 19.6839 3.20435 20 4 20C4.79565 20 5.55871 19.6839 6.12132 19.1213C6.68393 18.5587 7 17.7957 7 17C7 16.2044 6.68393 15.4413 6.12132 14.8787C5.80192 14.5593 5.4179 14.3193 5 14.1716V10C5 8.93913 5.42143 7.92172 6.17157 7.17157C6.92172 6.42143 7.93913 6 9 6H9.58579L8.29289 7.29289C7.90237 7.68342 7.90237 8.31658 8.29289 8.70711C8.68342 9.09763 9.31658 9.09763 9.70711 8.70711L12.7071 5.70711C13.0976 5.31658 13.0976 4.68342 12.7071 4.29289L9.70711 1.29289ZM4 16C3.73478 16 3.48043 16.1054 3.29289 16.2929C3.10536 16.4804 3 16.7348 3 17C3 17.2652 3.10536 17.5196 3.29289 17.7071C3.48043 17.8946 3.73478 18 4 18C4.26522 18 4.51957 17.8946 4.70711 17.7071C4.89464 17.5196 5 17.2652 5 17C5 16.7348 4.89464 16.4804 4.70711 16.2929C4.51957 16.1054 4.26522 16 4 16ZM18 6C18.2652 6 18.5196 5.89464 18.7071 5.70711C18.8946 5.51957 19 5.26522 19 5C19 4.73478 18.8946 4.48043 18.7071 4.29289C18.5196 4.10536 18.2652 4 18 4C17.7348 4 17.4804 4.10536 17.2929 4.29289C17.1054 4.48043 17 4.73478 17 5C17 5.26522 17.1054 5.51957 17.2929 5.70711C17.4804 5.89464 17.7348 6 18 6ZM19 12V7.82843C19.4179 7.68067 19.8019 7.44073 20.1213 7.12132C20.6839 6.55871 21 5.79565 21 5C21 4.20435 20.6839 3.44129 20.1213 2.87868C19.5587 2.31607 18.7957 2 18 2C17.2043 2 16.4413 2.31607 15.8787 2.87868C15.3161 3.44129 15 4.20435 15 5C15 5.79565 15.3161 6.55871 15.8787 7.12132C16.1981 7.44073 16.5821 7.68067 17 7.82843V12C17 13.0609 16.5786 14.0783 15.8284 14.8284C15.0783 15.5786 14.0609 16 13 16H12.4142L13.7071 14.7071C14.0976 14.3166 14.0976 13.6834 13.7071 13.2929C13.3166 12.9024 12.6834 12.9024 12.2929 13.2929L9.29289 16.2929C8.90237 16.6834 8.90237 17.3166 9.29289 17.7071L12.2929 20.7071C12.6834 21.0976 13.3166 21.0976 13.7071 20.7071C14.0976 20.3166 14.0976 19.6834 13.7071 19.2929L12.4142 18H13C14.5913 18 16.1174 17.3679 17.2426 16.2426C18.3679 15.1174 19 13.5913 19 12Z" fill="#686868"/>
</svg>
