<svg width="22" height="22" viewBox="0 0 22 22" fill="none" xmlns="http://www.w3.org/2000/svg">
<path fill-rule="evenodd" clip-rule="evenodd" d="M6.41568 2.80031C7.05814 2.78911 7.76941 3.09638 8.44377 3.84567C8.93033 4.3863 9.35919 5.11864 9.68686 6.00001H6.36257C5.95179 5.99041 5.55985 5.82304 5.26863 5.53181C4.96857 5.23176 4.8 4.82479 4.8 4.40044C4.8 3.9761 4.96857 3.56913 5.26863 3.26907C5.56869 2.96901 5.97565 2.80044 6.4 2.80044L6.41568 2.80031ZM6.34544 7.80001C6.36361 7.8003 6.3818 7.80044 6.4 7.80044C6.40948 7.80044 6.41892 7.8003 6.42833 7.80001H10V10L3.9 10L2.9 10C2.84477 10 2.8 9.95523 2.8 9.90001V7.90001C2.8 7.84478 2.84477 7.80001 2.9 7.80001H6.34544ZM3.39976 6.00001C3.13965 5.51209 3 4.96347 3 4.40044C3 3.49871 3.35821 2.6339 3.99584 1.99628C4.63159 1.36052 5.4932 1.00254 6.39208 1.00045C7.67597 0.980689 8.85251 1.60911 9.7817 2.64154C10.2084 3.11563 10.5826 3.67278 10.9 4.29185C11.2174 3.67278 11.5916 3.11563 12.0183 2.64154C12.9475 1.60911 14.124 0.980689 15.4079 1.00045C16.3068 1.00254 17.1684 1.36052 17.8042 1.99628C18.4418 2.6339 18.8 3.49871 18.8 4.40044C18.8 4.96347 18.6604 5.51209 18.4002 6.00001H18.9C19.9493 6.00001 20.8 6.85067 20.8 7.90001V9.90001C20.8 10.9493 19.9493 11.8 18.9 11.8H18.8V17.9C18.8 18.6691 18.4945 19.4068 17.9506 19.9506C17.4068 20.4945 16.6691 20.8 15.9 20.8H10.9H5.9C5.13087 20.8 4.39325 20.4945 3.84939 19.9506C3.30553 19.4068 3 18.6691 3 17.9V11.8H2.9C1.85066 11.8 1 10.9493 1 9.90001V7.90001C1 6.85067 1.85066 6.00001 2.9 6.00001H3.39976ZM15.3717 7.80001C15.3811 7.8003 15.3905 7.80044 15.4 7.80044C15.4182 7.80044 15.4364 7.8003 15.4546 7.80001H18.9C18.9552 7.80001 19 7.84478 19 7.90001V9.90001C19 9.95523 18.9552 10 18.9 10L17.9 10L11.8 10V7.80001H15.3717ZM15.4374 6.00001C15.8482 5.99041 16.2401 5.82304 16.5314 5.53181C16.8314 5.23176 17 4.82479 17 4.40044C17 3.9761 16.8314 3.56913 16.5314 3.26907C16.2313 2.96901 15.8243 2.80044 15.4 2.80044L15.3843 2.80031C14.7419 2.78911 14.0306 3.09638 13.3562 3.84567C12.8697 4.3863 12.4408 5.11864 12.1131 6.00001H15.4374ZM5.9 19H10V11.8H4.8V17.9C4.8 18.1917 4.91589 18.4715 5.12218 18.6778C5.32847 18.8841 5.60826 19 5.9 19ZM15.9 19H11.8V11.8H17V17.9C17 18.1917 16.8841 18.4715 16.6778 18.6778C16.4715 18.8841 16.1917 19 15.9 19Z" fill="#686868"/>
</svg>
