<svg width="22" height="22" viewBox="0 0 22 22" fill="none" xmlns="http://www.w3.org/2000/svg">
<path d="M11.5 21C16.7467 21 21 16.7467 21 11.5C21 6.25329 16.7467 2 11.5 2C6.25329 2 2 6.25329 2 11.5C2 16.7467 6.25329 21 11.5 21Z" stroke="#686868" stroke-width="2"/>
<path d="M11.5 19C15.6421 19 19 15.6421 19 11.5C19 7.35786 15.6421 4 11.5 4C7.35786 4 4 7.35786 4 11.5C4 15.6421 7.35786 19 11.5 19Z" stroke="#686868" stroke-width="0.5"/>
<path d="M5.81538 14V9.8H6.67338L8.72538 12.62V9.8H9.54138V14H8.72538L6.63738 11.126V14H5.81538Z" fill="#686868"/>
<path d="M15.344 14V10.55H14.084V9.8H17.42V10.55H16.166V14H15.344Z" fill="#686868"/>
<path d="M10.7949 14V9.8H13.4889V10.55H11.6169V11.558H13.1769V12.308H11.6169V14H10.7949Z" fill="#686868"/>
</svg>
