<svg width="22" height="22" viewBox="0 0 22 22" fill="none" xmlns="http://www.w3.org/2000/svg">
<path d="M11 7.94256C10.4189 7.94256 9.85077 8.11922 9.36757 8.45022C8.88437 8.78122 8.50776 9.25167 8.28537 9.8021C8.06298 10.3525 8.00479 10.9582 8.11816 11.5425C8.23154 12.1269 8.51138 12.6636 8.92231 13.0849C9.33324 13.5062 9.8568 13.7931 10.4268 13.9093C10.9967 14.0255 11.5875 13.9659 12.1244 13.7379C12.6613 13.5099 13.1202 13.1238 13.4431 12.6284C13.766 12.133 13.9383 11.5506 13.9383 10.9549C13.9383 10.1559 13.6287 9.38976 13.0777 8.82484C12.5267 8.25992 11.7793 7.94256 11 7.94256ZM11 11.959C10.8063 11.959 10.6169 11.9001 10.4559 11.7897C10.2948 11.6794 10.1693 11.5226 10.0951 11.3391C10.021 11.1556 10.0016 10.9537 10.0394 10.759C10.0772 10.5642 10.1705 10.3853 10.3074 10.2449C10.4444 10.1044 10.6189 10.0088 10.8089 9.97005C10.9989 9.93131 11.1958 9.95119 11.3748 10.0272C11.5538 10.1032 11.7067 10.2319 11.8144 10.397C11.922 10.5621 11.9794 10.7563 11.9794 10.9549C11.9794 11.2212 11.8762 11.4766 11.6926 11.6649C11.5089 11.8532 11.2598 11.959 11 11.959ZM19.6288 11.7682C19.4691 11.5825 19.3819 11.343 19.3839 11.0954V10.8143C19.3819 10.5668 19.4691 10.3272 19.6288 10.1415L20.2556 9.41859C20.7361 8.86572 21.0011 8.15082 21 7.41038C20.9953 6.88251 20.8605 6.36442 20.6082 5.90423L20.0597 4.90013C19.8017 4.44192 19.4305 4.06147 18.9834 3.79707C18.5364 3.53266 18.0293 3.39364 17.5132 3.39398C17.3159 3.39411 17.119 3.41429 16.9256 3.45422L16.0049 3.645H15.7992C15.6312 3.64233 15.4665 3.59751 15.3193 3.51447L15.0744 3.36385C14.885 3.26905 14.7304 3.11411 14.6337 2.92205L14.3301 2.00832C14.1269 1.41914 13.75 0.90933 13.2516 0.549518C12.7532 0.189706 12.158 -0.00229591 11.5485 0.000113128H10.4515C9.84666 -0.00525979 9.25493 0.180873 8.7571 0.5331C8.25927 0.885327 7.8796 1.38648 7.66993 1.96815L7.36631 2.92205C7.2903 3.15525 7.13348 3.35175 6.92557 3.4743L6.6905 3.62492C6.53929 3.70662 6.37167 3.75129 6.20079 3.75545H6.0049L5.12341 3.50443C4.92995 3.46449 4.7331 3.44431 4.53575 3.44418C4.01331 3.4329 3.49738 3.56466 3.04116 3.82587C2.58493 4.08709 2.2049 4.46832 1.94026 4.93025L1.39178 5.93435C1.08437 6.4825 0.953002 7.11591 1.01628 7.74486C1.07957 8.37381 1.33429 8.9664 1.74437 9.43867L2.37121 10.1616C2.53092 10.3473 2.61812 10.5868 2.61607 10.8344V11.1155C2.61812 11.363 2.53092 11.6026 2.37121 11.7883L1.74437 12.5112C1.26393 13.0641 0.998944 13.779 1 14.5194C1.00473 15.0473 1.13949 15.5654 1.39178 16.0256L1.94026 17.0297C2.19831 17.4879 2.56953 17.8683 3.01656 18.1327C3.4636 18.3971 3.97068 18.5362 4.48678 18.5358C4.68413 18.5357 4.88097 18.5155 5.07444 18.4756L5.9951 18.2848H6.19099C6.35896 18.2875 6.52374 18.3323 6.67091 18.4153L6.91577 18.566C7.12368 18.6885 7.28051 18.885 7.35652 19.1182L7.66993 19.9918C7.87312 20.5809 8.25001 21.0908 8.74839 21.4506C9.24677 21.8104 9.84196 22.0024 10.4515 22H11.5485C12.158 22.0024 12.7532 21.8104 13.2516 21.4506C13.75 21.0908 14.1269 20.5809 14.3301 19.9918L14.6337 19.078C14.7097 18.8448 14.8665 18.6483 15.0744 18.5258L15.3095 18.3752C15.4607 18.2935 15.6283 18.2488 15.7992 18.2446H15.9951L16.9256 18.4354C17.119 18.4753 17.3159 18.4955 17.5132 18.4957C18.0293 18.496 18.5364 18.357 18.9834 18.0926C19.4305 17.8282 19.8017 17.4477 20.0597 16.9895L20.6082 15.9854C20.8605 15.5252 20.9953 15.0071 21 14.4793C21.0011 13.7388 20.7361 13.0239 20.2556 12.4711L19.6288 11.7682ZM18.1694 13.0936L18.7963 13.8166C18.956 14.0022 19.0432 14.2418 19.0411 14.4893C19.0393 14.6661 18.992 14.8393 18.904 14.9913L18.3555 15.9955C18.2701 16.1472 18.1474 16.2734 17.9996 16.3615C17.8518 16.4495 17.6841 16.4964 17.5132 16.4975H17.3173L16.3967 16.3067C15.6903 16.1566 14.9547 16.2781 14.3301 16.6481L14.095 16.7887C13.4713 17.1564 13.0008 17.7459 12.7728 18.4455L12.4789 19.3692C12.4132 19.5687 12.2881 19.7419 12.1211 19.8644C11.9541 19.9869 11.7538 20.0526 11.5485 20.052H10.4515C10.2462 20.0526 10.0459 19.9869 9.87892 19.8644C9.71195 19.7419 9.58676 19.5687 9.52106 19.3692L9.22723 18.4455C8.99921 17.7459 8.52874 17.1564 7.905 16.7887L7.66014 16.6481C7.21616 16.3861 6.71307 16.2476 6.20079 16.2465C6.0002 16.2466 5.8001 16.2668 5.60333 16.3067L4.68267 16.4975H4.48678C4.31419 16.4982 4.14449 16.4521 3.99486 16.364C3.84522 16.2758 3.72097 16.1487 3.63467 15.9955L3.09599 14.9913C3.00796 14.8393 2.96066 14.6661 2.95887 14.4893C2.94586 14.2469 3.01892 14.0079 3.16455 13.8166L3.79138 13.0936C4.27182 12.5407 4.53681 11.8258 4.53575 11.0854V10.8042C4.53681 10.0638 4.27182 9.3489 3.79138 8.79604L3.16455 8.09317C3.00483 7.90753 2.91763 7.66795 2.91969 7.42042C2.93661 7.24679 2.99737 7.08068 3.09599 6.93845L3.64447 5.93435C3.72993 5.7826 3.85264 5.65641 4.00041 5.56833C4.14818 5.48026 4.31586 5.43336 4.48678 5.4323H4.68267L5.60333 5.62308C5.80003 5.66348 6.00018 5.68366 6.20079 5.68333C6.71307 5.68216 7.21616 5.5437 7.66014 5.28169L7.905 5.14111C8.52142 4.78327 8.99098 4.20916 9.22723 3.52451L9.52106 2.60074C9.58676 2.4013 9.71195 2.22808 9.87892 2.10556C10.0459 1.98303 10.2462 1.9174 10.4515 1.91795H11.5485C11.7538 1.9174 11.9541 1.98303 12.1211 2.10556C12.2881 2.22808 12.4132 2.4013 12.4789 2.60074L12.7728 3.52451C13.0008 4.2241 13.4713 4.81361 14.095 5.18128L14.3399 5.32185C14.7838 5.58386 15.2869 5.72232 15.7992 5.72349C15.9998 5.72383 16.2 5.70364 16.3967 5.66325L17.3173 5.47247H17.5132C17.6858 5.47176 17.8555 5.51783 18.0051 5.60599C18.1548 5.69415 18.279 5.82129 18.3653 5.97452L18.904 6.97862C18.992 7.13067 19.0393 7.30386 19.0411 7.48067C19.0432 7.72819 18.956 7.96778 18.7963 8.15342L18.1694 8.87637C17.689 9.42923 17.424 10.1441 17.4251 10.8846V11.1657C17.424 11.9062 17.689 12.6211 18.1694 13.1739" fill="#686868"/>
</svg>
