<svg width="22" height="22" viewBox="0 0 22 22" fill="none" xmlns="http://www.w3.org/2000/svg">
<path d="M19.9999 11.9155C19.9975 11.3624 19.8819 10.8162 19.6609 10.3128C19.4399 9.80945 19.1184 9.36047 18.7178 8.99551C18.7171 7.81261 18.4636 6.64457 17.9754 5.57551C17.3504 4.20664 16.3635 3.04996 15.1296 2.23997C13.8957 1.42999 12.4655 1 11.0053 1C9.54507 1 8.11485 1.42999 6.88096 2.23997C5.64707 3.04996 4.66021 4.20664 4.03515 5.57551C3.5485 6.64511 3.29505 7.81279 3.29282 8.99551L3.08073 9.18551C2.38564 9.97135 2 10.999 2 12.0655C2 13.132 2.38564 14.1597 3.08073 14.9455C3.42398 15.3306 3.83983 15.6385 4.3025 15.8501C4.76518 16.0617 5.26482 16.1725 5.77045 16.1755H6.185C6.31187 16.1763 6.43765 16.1511 6.5551 16.1013C6.67256 16.0515 6.7794 15.9782 6.86948 15.8855C7.04074 15.7067 7.14059 15.4674 7.14905 15.2155V8.99551C7.14905 8.7303 7.04748 8.47594 6.86669 8.28841C6.68589 8.10087 6.44068 7.99551 6.185 7.99551H5.78009C5.6186 8.00226 5.45764 8.01895 5.29806 8.04552C5.38232 7.48416 5.54468 6.93847 5.78009 6.42551C6.24944 5.40023 6.98952 4.53406 7.91442 3.92757C8.83931 3.32108 9.91108 2.99915 11.0053 2.99915C12.0995 2.99915 13.1713 3.32108 14.0962 3.92757C15.0211 4.53406 15.7611 5.40023 16.2305 6.42551C16.4659 6.93847 16.6283 7.48416 16.7125 8.04552C16.5529 8.01895 16.392 8.00226 16.2305 7.99551H15.8256C15.5699 7.99551 15.3247 8.10087 15.1439 8.28841C14.9631 8.47594 14.8615 8.7303 14.8615 8.99551V14.8255C14.8608 14.9571 14.8851 15.0876 14.9331 15.2094C14.9811 15.3313 15.0517 15.4421 15.1411 15.5355C15.2312 15.6282 15.338 15.7015 15.4555 15.7513C15.5729 15.8011 15.6987 15.8263 15.8256 15.8255H16.2305C16.4181 15.8209 16.6051 15.8008 16.7896 15.7655V17.9955C16.7896 18.2607 16.6881 18.5151 16.5073 18.7026C16.3265 18.8902 16.0813 18.9955 15.8256 18.9955H14.8615C14.8924 18.8307 14.9085 18.6634 14.9097 18.4955C14.9098 18.163 14.8459 17.8337 14.7218 17.5271C14.5976 17.2205 14.4158 16.9426 14.1869 16.7098C13.9579 16.477 13.6865 16.2939 13.3885 16.1713C13.0905 16.0486 12.7719 15.9889 12.4514 15.9955H10.5233C9.88405 15.9955 9.27102 16.2589 8.81903 16.7277C8.36704 17.1966 8.11311 17.8325 8.11311 18.4955C8.11311 19.1586 8.36704 19.7944 8.81903 20.2633C9.27102 20.7321 9.88405 20.9955 10.5233 20.9955H15.8256C16.5926 20.9955 17.3283 20.6794 17.8707 20.1168C18.413 19.5542 18.7178 18.7912 18.7178 17.9955V14.9955C18.7223 14.949 18.7223 14.9021 18.7178 14.8555C19.1228 14.49 19.4471 14.0381 19.6684 13.5307C19.8896 13.0234 20.0027 12.4724 19.9999 11.9155ZM3.93874 12.1055C3.9335 11.5468 4.13341 11.0069 4.49789 10.5955C4.69805 10.375 4.94588 10.2071 5.22094 10.1055V14.1055C4.94821 14.0039 4.70107 13.8398 4.49789 13.6255C4.13363 13.21 3.93394 12.6671 3.93874 12.1055ZM11.0053 18.9955H10.5233C10.3954 18.9955 10.2728 18.9428 10.1824 18.8491C10.092 18.7553 10.0412 18.6281 10.0412 18.4955C10.0412 18.3629 10.092 18.2357 10.1824 18.142C10.2728 18.0482 10.3954 17.9955 10.5233 17.9955H12.4514C12.5792 17.9955 12.7018 18.0482 12.7922 18.142C12.8826 18.2357 12.9334 18.3629 12.9334 18.4955C12.9334 18.6281 12.8826 18.7553 12.7922 18.8491C12.7018 18.9428 12.5792 18.9955 12.4514 18.9955H11.0053ZM16.7896 13.7255V10.0955C17.1633 10.2155 17.4901 10.4565 17.7223 10.7831C17.9544 11.1097 18.0796 11.5048 18.0796 11.9105C18.0796 12.3163 17.9544 12.7114 17.7223 13.038C17.4901 13.3646 17.1633 13.6055 16.7896 13.7255Z" fill="#686868"/>
</svg>
