<svg width="22" height="22" viewBox="0 0 22 22" fill="none" xmlns="http://www.w3.org/2000/svg">
	<path d="M3.8 7.71901C3.65239 7.71501 3.54521 7.70604 3.44884 7.68593C2.7348 7.53688 2.17662 6.95114 2.03459 6.20184C2 6.01937 2 5.79996 2 5.36111C2 4.92227 2 4.70285 2.03459 4.52039C2.17662 3.77108 2.7348 3.18534 3.44884 3.03629C3.62272 3 3.83181 3 4.25 3H17.75C18.1682 3 18.3773 3 18.5512 3.03629C19.2652 3.18534 19.8234 3.77108 19.9654 4.52039C20 4.70285 20 4.92227 20 5.36111C20 5.79996 20 6.01937 19.9654 6.20184C19.8234 6.95114 19.2652 7.53688 18.5512 7.68593C18.4548 7.70604 18.3476 7.71501 18.2 7.71901M9.2 12.4444H12.8M3.8 7.72222H18.2V15.4667C18.2 17.0535 18.2 17.8469 17.9057 18.453C17.6469 18.9861 17.2338 19.4195 16.7258 19.6912C16.1482 20 15.3922 20 13.88 20H8.12C6.60786 20 5.85178 20 5.27423 19.6912C4.76619 19.4195 4.35314 18.9861 4.09428 18.453C3.8 17.8469 3.8 17.0535 3.8 15.4667V7.72222Z"
		  stroke="#686868" stroke-width="2" stroke-linecap="round" stroke-linejoin="round"/>
</svg>
