<svg width="40" height="40" viewBox="0 0 40 40" fill="none" xmlns="http://www.w3.org/2000/svg">
<path d="M33.845 7.4931C31.3116 6.33091 28.5687 5.48737 25.7115 5C25.6613 5.0007 25.6133 5.02092 25.5782 5.05624C25.2353 5.67483 24.8353 6.48087 24.5686 7.09946C21.538 6.64986 18.4561 6.64986 15.4255 7.09946C15.1588 6.46212 14.7588 5.67483 14.3969 5.05624C14.3779 5.01875 14.3207 5 14.2636 5C11.4063 5.48737 8.68246 6.33091 6.13 7.4931C6.11096 7.4931 6.09191 7.51185 6.07286 7.53059C0.891766 15.1599 -0.536845 22.5829 0.167936 29.931C0.167936 29.9685 0.186984 30.006 0.225081 30.0248C3.65375 32.4991 6.94907 33.9987 10.2063 34.9922C10.2635 35.011 10.3206 34.9922 10.3396 34.9547C11.1016 33.9238 11.7873 32.8365 12.3778 31.6931C12.4159 31.6181 12.3778 31.5431 12.3016 31.5244C11.2159 31.112 10.1873 30.6246 9.17771 30.0623C9.10151 30.0248 9.10151 29.9123 9.15866 29.8561C9.36819 29.7061 9.57772 29.5374 9.78725 29.3874C9.82534 29.3499 9.88249 29.3499 9.92058 29.3687C16.4731 32.3117 23.54 32.3117 30.0164 29.3687C30.0545 29.3499 30.1116 29.3499 30.1497 29.3874C30.3592 29.5561 30.5688 29.7061 30.7783 29.8748C30.8545 29.931 30.8545 30.0435 30.7592 30.081C29.7687 30.6621 28.7211 31.1307 27.6354 31.5431C27.5592 31.5619 27.5401 31.6556 27.5592 31.7118C28.1687 32.8553 28.8544 33.9425 29.5973 34.9735C29.6545 34.9922 29.7116 35.011 29.7687 34.9922C33.045 33.9987 36.3404 32.4991 39.769 30.0248C39.8071 30.006 39.8262 29.9685 39.8262 29.931C40.6643 21.4395 38.4356 14.0727 33.9212 7.53059C33.9022 7.51185 33.8831 7.4931 33.845 7.4931ZM13.3683 25.451C11.4063 25.451 9.7682 23.6702 9.7682 21.477C9.7682 19.2838 11.3682 17.503 13.3683 17.503C15.3874 17.503 16.9874 19.3025 16.9684 21.477C16.9684 23.6702 15.3684 25.451 13.3683 25.451ZM26.6449 25.451C24.6829 25.451 23.0448 23.6702 23.0448 21.477C23.0448 19.2838 24.6448 17.503 26.6449 17.503C28.664 17.503 30.264 19.3025 30.2449 21.477C30.2449 23.6702 28.664 25.451 26.6449 25.451Z" fill="#696977"/>
</svg>
