<svg width="40" height="40" viewBox="0 0 40 40" fill="none" xmlns="http://www.w3.org/2000/svg">
<path d="M27.4745 23.0633L37.7266 12.9707V33.0406L27.4745 23.0633ZM14.2639 24.7724L17.8641 28.3135C18.4291 28.8574 19.1658 29.186 19.9708 29.186H19.9992H20.0208C20.8275 29.186 21.5642 28.8555 22.1359 28.3078L22.1309 28.3116L25.7311 24.7705L36.6749 35.4202H3.32514L14.2639 24.7724ZM3.31014 10.5779H36.6949L20.6592 26.3588C20.4797 26.522 20.256 26.6101 20.0258 26.6081H20.0025H19.9808C19.7499 26.61 19.5255 26.5212 19.3458 26.3569L19.3475 26.3588L3.31014 10.5779ZM2.27509 12.9688L12.5255 23.0614L2.27509 33.033V12.9688ZM38.2766 8.35883C37.8766 8.1322 37.4066 8 36.9082 8H3.09846C2.61559 8.00217 2.13955 8.12943 1.70674 8.37205L1.72507 8.36261C1.20816 8.65247 0.772859 9.09997 0.46811 9.65481C0.163361 10.2096 0.00124899 10.8498 0 11.5033L0 34.491C0.000882376 35.4214 0.327434 36.3133 0.908005 36.9711C1.48858 37.629 2.27575 37.999 3.0968 38H36.9032C37.7243 37.999 38.5114 37.629 39.092 36.9711C39.6726 36.3133 39.9991 35.4214 40 34.491V11.5033C40 10.1303 39.3016 8.94051 38.2849 8.36827L38.2666 8.35883H38.2766Z" fill="#696977"/>
</svg>
