<svg width="40" height="40" viewBox="0 0 40 40" fill="none" xmlns="http://www.w3.org/2000/svg">
<path d="M20.5 3C18.2019 3 15.9262 3.46389 13.803 4.36518C11.6798 5.26647 9.75066 6.58752 8.12563 8.25288C4.84374 11.6163 3 16.178 3 20.9345C3 28.8615 8.0225 35.5869 14.97 37.9722C15.845 38.1157 16.125 37.5597 16.125 37.0755V34.0446C11.2775 35.1206 10.245 31.6413 10.245 31.6413C9.44 29.561 8.3025 29.005 8.3025 29.005C6.71 27.893 8.425 27.9289 8.425 27.9289C10.175 28.0545 11.1025 29.7762 11.1025 29.7762C12.625 32.5022 15.1975 31.6952 16.195 31.2647C16.3525 30.099 16.8075 29.3099 17.2975 28.8615C13.4125 28.4131 9.335 26.8708 9.335 20.0377C9.335 18.047 10 16.4509 11.1375 15.1775C10.9625 14.7291 10.35 12.864 11.3125 10.4428C11.3125 10.4428 12.7825 9.95858 16.125 12.2721C17.5075 11.8776 19.0125 11.6803 20.5 11.6803C21.9875 11.6803 23.4925 11.8776 24.875 12.2721C28.2175 9.95858 29.6875 10.4428 29.6875 10.4428C30.65 12.864 30.0375 14.7291 29.8625 15.1775C31 16.4509 31.665 18.047 31.665 20.0377C31.665 26.8887 27.57 28.3952 23.6675 28.8436C24.2975 29.3995 24.875 30.4935 24.875 32.1615V37.0755C24.875 37.5597 25.155 38.1336 26.0475 37.9722C32.995 35.569 38 28.8615 38 20.9345C38 18.5793 37.5474 16.2472 36.6679 14.0712C35.7884 11.8953 34.4994 9.91825 32.8744 8.25288C31.2493 6.58752 29.3202 5.26647 27.197 4.36518C25.0738 3.46389 22.7981 3 20.5 3Z" fill="#696977"/>
</svg>
