<svg width="40" height="40" viewBox="0 0 40 40" fill="none" xmlns="http://www.w3.org/2000/svg">
<path d="M13.15 3H27.85C33.45 3 38 7.55 38 13.15V27.85C38 30.5419 36.9306 33.1236 35.0271 35.0271C33.1236 36.9306 30.5419 38 27.85 38H13.15C7.55 38 3 33.45 3 27.85V13.15C3 10.4581 4.06937 7.87636 5.97287 5.97287C7.87636 4.06937 10.4581 3 13.15 3ZM12.8 6.5C11.1291 6.5 9.52671 7.16375 8.34523 8.34523C7.16375 9.52671 6.5 11.1291 6.5 12.8V28.2C6.5 31.6825 9.3175 34.5 12.8 34.5H28.2C29.8709 34.5 31.4733 33.8363 32.6548 32.6548C33.8363 31.4733 34.5 29.8709 34.5 28.2V12.8C34.5 9.3175 31.6825 6.5 28.2 6.5H12.8ZM29.6875 9.125C30.2677 9.125 30.8241 9.35547 31.2343 9.7657C31.6445 10.1759 31.875 10.7323 31.875 11.3125C31.875 11.8927 31.6445 12.4491 31.2343 12.8593C30.8241 13.2695 30.2677 13.5 29.6875 13.5C29.1073 13.5 28.5509 13.2695 28.1407 12.8593C27.7305 12.4491 27.5 11.8927 27.5 11.3125C27.5 10.7323 27.7305 10.1759 28.1407 9.7657C28.5509 9.35547 29.1073 9.125 29.6875 9.125ZM20.5 11.75C22.8206 11.75 25.0462 12.6719 26.6872 14.3128C28.3281 15.9538 29.25 18.1794 29.25 20.5C29.25 22.8206 28.3281 25.0462 26.6872 26.6872C25.0462 28.3281 22.8206 29.25 20.5 29.25C18.1794 29.25 15.9538 28.3281 14.3128 26.6872C12.6719 25.0462 11.75 22.8206 11.75 20.5C11.75 18.1794 12.6719 15.9538 14.3128 14.3128C15.9538 12.6719 18.1794 11.75 20.5 11.75ZM20.5 15.25C19.1076 15.25 17.7723 15.8031 16.7877 16.7877C15.8031 17.7723 15.25 19.1076 15.25 20.5C15.25 21.8924 15.8031 23.2277 16.7877 24.2123C17.7723 25.1969 19.1076 25.75 20.5 25.75C21.8924 25.75 23.2277 25.1969 24.2123 24.2123C25.1969 23.2277 25.75 21.8924 25.75 20.5C25.75 19.1076 25.1969 17.7723 24.2123 16.7877C23.2277 15.8031 21.8924 15.25 20.5 15.25Z" fill="#696977"/>
</svg>
