<svg width="40" height="41" viewBox="0 0 40 41" fill="none" xmlns="http://www.w3.org/2000/svg">
<path fill-rule="evenodd" clip-rule="evenodd" d="M5.71429 14.9978C4.13633 14.9978 2.85714 16.277 2.85714 17.8549V34.9978C2.85714 36.5757 4.13633 37.8549 5.71429 37.8549H34.2857C35.8637 37.8549 37.1429 36.5757 37.1429 34.9978V17.8549C37.1429 16.277 35.8637 14.9978 34.2857 14.9978H5.71429ZM0 17.8549C0 14.699 2.55837 12.1406 5.71429 12.1406H34.2857C37.4416 12.1406 40 14.699 40 17.8549V34.9978C40 38.1537 37.4416 40.7121 34.2857 40.7121H5.71429C2.55837 40.7121 0 38.1537 0 34.9978V17.8549Z" fill="#696977"/>
<path fill-rule="evenodd" clip-rule="evenodd" d="M28.3184 5.10144C29.1658 4.94216 30.0378 4.97073 30.873 5.18522C31.7129 5.40093 32.4949 5.79936 33.1631 6.35208C33.8313 6.90479 34.3693 7.59818 34.7387 8.38276C35.1081 9.16734 35.2997 10.0238 35.3 10.891V13.57H32.4429V10.8919C32.4429 10.8917 32.4429 10.8916 32.4429 10.8914C32.4426 10.4448 32.3439 10.0038 32.1537 9.59978C31.9634 9.1956 31.6863 8.8384 31.342 8.55367C30.9978 8.26893 30.595 8.06368 30.1623 7.95256C29.7296 7.84144 29.2777 7.82718 28.8389 7.91081C28.8298 7.91253 28.8208 7.91416 28.8118 7.9157L5.31237 11.9266C4.62286 12.0609 4.00113 12.4302 3.55332 12.9718C3.10288 13.5166 2.85666 14.2014 2.85714 14.9083L2.85714 19.2843H7.78939e-07V14.9097C7.78939e-07 14.9096 7.78939e-07 14.9094 7.78939e-07 14.9093C-0.000704259 13.5375 0.477222 12.2084 1.35141 11.1511C2.2258 10.0936 3.44181 9.37444 4.78972 9.11757C4.79873 9.11585 4.80775 9.11422 4.81679 9.11268L28.3184 5.10144Z" fill="#696977"/>
<path d="M30.0056 29.2846C29.4405 29.2846 28.8881 29.117 28.4182 28.8031C27.9484 28.4891 27.5822 28.0429 27.3659 27.5208C27.1497 26.9988 27.0931 26.4243 27.2033 25.8701C27.3136 25.3158 27.5857 24.8067 27.9853 24.4072C28.3849 24.0076 28.8939 23.7355 29.4482 23.6252C30.0024 23.515 30.5769 23.5716 31.099 23.7878C31.621 24.0041 32.0673 24.3703 32.3812 24.8401C32.6952 25.31 32.8627 25.8624 32.8627 26.4275C32.8627 27.1852 32.5617 27.9119 32.0259 28.4478C31.4901 28.9836 30.7633 29.2846 30.0056 29.2846Z" fill="#696977"/>
</svg>
