<svg width="40" height="40" viewBox="0 0 40 40" fill="none" xmlns="http://www.w3.org/2000/svg">
<path d="M20 24C19.2089 24 18.4355 23.7654 17.7777 23.3259C17.1199 22.8864 16.6072 22.2616 16.3045 21.5307C16.0017 20.7998 15.9225 19.9956 16.0769 19.2196C16.2312 18.4437 16.6122 17.731 17.1716 17.1716C17.731 16.6122 18.4437 16.2312 19.2196 16.0769C19.9956 15.9225 20.7998 16.0017 21.5307 16.3045C22.2616 16.6072 22.8864 17.1199 23.3259 17.7777C23.7654 18.4355 24 19.2089 24 20C23.9987 21.0605 23.5768 22.0771 22.827 22.827C22.0771 23.5768 21.0605 23.9987 20 24ZM20 18C19.6044 18 19.2178 18.1173 18.8889 18.3371C18.56 18.5568 18.3036 18.8692 18.1522 19.2346C18.0009 19.6001 17.9613 20.0022 18.0384 20.3902C18.1156 20.7781 18.3061 21.1345 18.5858 21.4142C18.8655 21.6939 19.2219 21.8844 19.6098 21.9616C19.9978 22.0387 20.3999 21.9991 20.7654 21.8478C21.1308 21.6964 21.4432 21.44 21.6629 21.1111C21.8827 20.7822 22 20.3956 22 20C22 19.4696 21.7893 18.9609 21.4142 18.5858C21.0391 18.2107 20.5304 18 20 18ZM9 24C8.20888 24 7.43552 23.7654 6.77772 23.3259C6.11992 22.8864 5.60723 22.2616 5.30448 21.5307C5.00173 20.7998 4.92252 19.9956 5.07686 19.2196C5.2312 18.4437 5.61216 17.731 6.17157 17.1716C6.73098 16.6122 7.44372 16.2312 8.21964 16.0769C8.99556 15.9225 9.79983 16.0017 10.5307 16.3045C11.2616 16.6072 11.8864 17.1199 12.3259 17.7777C12.7654 18.4355 13 19.2089 13 20C12.9987 21.0605 12.5768 22.0771 11.827 22.827C11.0771 23.5768 10.0605 23.9987 9 24ZM9 18C8.60444 18 8.21776 18.1173 7.88886 18.3371C7.55996 18.5568 7.30362 18.8692 7.15224 19.2346C7.00087 19.6001 6.96126 20.0022 7.03843 20.3902C7.1156 20.7781 7.30608 21.1345 7.58579 21.4142C7.86549 21.6939 8.22186 21.8844 8.60982 21.9616C8.99778 22.0387 9.39992 21.9991 9.76537 21.8478C10.1308 21.6964 10.4432 21.44 10.6629 21.1111C10.8827 20.7822 11 20.3956 11 20C11 19.4696 10.7893 18.9609 10.4142 18.5858C10.0391 18.2107 9.53044 18 9 18ZM14 35C13.2089 35 12.4355 34.7654 11.7777 34.3259C11.1199 33.8864 10.6072 33.2616 10.3045 32.5307C10.0017 31.7998 9.92252 30.9956 10.0769 30.2196C10.2312 29.4437 10.6122 28.731 11.1716 28.1716C11.731 27.6122 12.4437 27.2312 13.2196 27.0769C13.9956 26.9225 14.7998 27.0017 15.5307 27.3045C16.2616 27.6072 16.8864 28.1199 17.3259 28.7777C17.7654 29.4355 18 30.2089 18 31C17.9987 32.0605 17.5768 33.0771 16.827 33.827C16.0771 34.5768 15.0605 34.9987 14 35ZM14 29C13.6044 29 13.2178 29.1173 12.8889 29.3371C12.56 29.5568 12.3036 29.8692 12.1522 30.2346C12.0009 30.6001 11.9613 31.0022 12.0384 31.3902C12.1156 31.7781 12.3061 32.1345 12.5858 32.4142C12.8655 32.6939 13.2219 32.8844 13.6098 32.9616C13.9978 33.0387 14.3999 32.9991 14.7654 32.8478C15.1308 32.6964 15.4432 32.44 15.6629 32.1111C15.8827 31.7822 16 31.3956 16 31C16 30.4696 15.7893 29.9609 15.4142 29.5858C15.0391 29.2107 14.5304 29 14 29ZM26 35C25.2089 35 24.4355 34.7654 23.7777 34.3259C23.1199 33.8864 22.6072 33.2616 22.3045 32.5307C22.0017 31.7998 21.9225 30.9956 22.0769 30.2196C22.2312 29.4437 22.6122 28.731 23.1716 28.1716C23.731 27.6122 24.4437 27.2312 25.2196 27.0769C25.9956 26.9225 26.7998 27.0017 27.5307 27.3045C28.2616 27.6072 28.8864 28.1199 29.3259 28.7777C29.7654 29.4355 30 30.2089 30 31C29.9987 32.0605 29.5768 33.0771 28.827 33.827C28.0771 34.5768 27.0605 34.9987 26 35ZM26 29C25.6044 29 25.2178 29.1173 24.8889 29.3371C24.56 29.5568 24.3036 29.8692 24.1522 30.2346C24.0009 30.6001 23.9613 31.0022 24.0384 31.3902C24.1156 31.7781 24.3061 32.1345 24.5858 32.4142C24.8655 32.6939 25.2219 32.8844 25.6098 32.9616C25.9978 33.0387 26.3999 32.9991 26.7654 32.8478C27.1308 32.6964 27.4432 32.44 27.6629 32.1111C27.8827 31.7822 28 31.3956 28 31C28 30.4696 27.7893 29.9609 27.4142 29.5858C27.0391 29.2107 26.5304 29 26 29ZM31 24C30.2089 24 29.4355 23.7654 28.7777 23.3259C28.1199 22.8864 27.6072 22.2616 27.3045 21.5307C27.0017 20.7998 26.9225 19.9956 27.0769 19.2196C27.2312 18.4437 27.6122 17.731 28.1716 17.1716C28.731 16.6122 29.4437 16.2312 30.2196 16.0769C30.9956 15.9225 31.7998 16.0017 32.5307 16.3045C33.2616 16.6072 33.8864 17.1199 34.3259 17.7777C34.7654 18.4355 35 19.2089 35 20C34.9987 21.0605 34.5768 22.0771 33.827 22.827C33.0771 23.5768 32.0605 23.9987 31 24ZM31 18C30.6044 18 30.2178 18.1173 29.8889 18.3371C29.56 18.5568 29.3036 18.8692 29.1522 19.2346C29.0009 19.6001 28.9613 20.0022 29.0384 20.3902C29.1156 20.7781 29.3061 21.1345 29.5858 21.4142C29.8655 21.6939 30.2219 21.8844 30.6098 21.9616C30.9978 22.0387 31.3999 21.9991 31.7654 21.8478C32.1308 21.6964 32.4432 21.44 32.6629 21.1111C32.8827 20.7822 33 20.3956 33 20C33 19.4696 32.7893 18.9609 32.4142 18.5858C32.0391 18.2107 31.5304 18 31 18ZM26 13C25.2089 13 24.4355 12.7654 23.7777 12.3259C23.1199 11.8864 22.6072 11.2616 22.3045 10.5307C22.0017 9.79983 21.9225 8.99556 22.0769 8.21964C22.2312 7.44372 22.6122 6.73098 23.1716 6.17157C23.731 5.61216 24.4437 5.2312 25.2196 5.07686C25.9956 4.92252 26.7998 5.00173 27.5307 5.30448C28.2616 5.60723 28.8864 6.11992 29.3259 6.77772C29.7654 7.43552 30 8.20888 30 9C29.9987 10.0605 29.5768 11.0771 28.827 11.827C28.0771 12.5768 27.0605 12.9987 26 13ZM26 7C25.6044 7 25.2178 7.1173 24.8889 7.33706C24.56 7.55683 24.3036 7.86918 24.1522 8.23463C24.0009 8.60009 23.9613 9.00222 24.0384 9.39018C24.1156 9.77814 24.3061 10.1345 24.5858 10.4142C24.8655 10.6939 25.2219 10.8844 25.6098 10.9616C25.9978 11.0387 26.3999 10.9991 26.7654 10.8478C27.1308 10.6964 27.4432 10.44 27.6629 10.1111C27.8827 9.78224 28 9.39556 28 9C28 8.46957 27.7893 7.96086 27.4142 7.58579C27.0391 7.21072 26.5304 7 26 7ZM14 13C13.2089 13 12.4355 12.7654 11.7777 12.3259C11.1199 11.8864 10.6072 11.2616 10.3045 10.5307C10.0017 9.79983 9.92252 8.99556 10.0769 8.21964C10.2312 7.44372 10.6122 6.73098 11.1716 6.17157C11.731 5.61216 12.4437 5.2312 13.2196 5.07686C13.9956 4.92252 14.7998 5.00173 15.5307 5.30448C16.2616 5.60723 16.8864 6.11992 17.3259 6.77772C17.7654 7.43552 18 8.20888 18 9C17.9987 10.0605 17.5768 11.0771 16.827 11.827C16.0771 12.5768 15.0605 12.9987 14 13ZM14 7C13.6044 7 13.2178 7.1173 12.8889 7.33706C12.56 7.55683 12.3036 7.86918 12.1522 8.23463C12.0009 8.60009 11.9613 9.00222 12.0384 9.39018C12.1156 9.77814 12.3061 10.1345 12.5858 10.4142C12.8655 10.6939 13.2219 10.8844 13.6098 10.9616C13.9978 11.0387 14.3999 10.9991 14.7654 10.8478C15.1308 10.6964 15.4432 10.44 15.6629 10.1111C15.8827 9.78224 16 9.39556 16 9C16 8.46957 15.7893 7.96086 15.4142 7.58579C15.0391 7.21072 14.5304 7 14 7Z" fill="#696977"/>
</svg>
