<svg width="40" height="40" viewBox="0 0 40 40" fill="none" xmlns="http://www.w3.org/2000/svg">
<path d="M31.5 35H10.5C9.30653 35 8.16193 34.5259 7.31802 33.682C6.47411 32.8381 6 31.6935 6 30.5V9.5C6 8.30653 6.47411 7.16193 7.31802 6.31802C8.16193 5.47411 9.30653 5 10.5 5H31.5C31.8978 5 32.2794 5.15804 32.5607 5.43934C32.842 5.72064 33 6.10218 33 6.5V33.5C33 33.8978 32.842 34.2794 32.5607 34.5607C32.2794 34.842 31.8978 35 31.5 35ZM31 33V29H10.5C10.1022 29 9.72064 29.158 9.43934 29.4393C9.15804 29.7206 9 30.1022 9 30.5C9 31.1623 9.06831 31.8513 9.46715 32.3801C9.71378 32.707 10.0581 33 10.5 33H31ZM8 27.5C8.4695 27.335 9.475 27 10 27H31V7H10.5C10.1022 7 9.2813 7.7187 9 8C8.7187 8.2813 8 9.10218 8 9.5V27.5ZM19.5 17C18.7044 17 17.9413 16.6839 17.3787 16.1213C16.8161 15.5587 16.5 14.7956 16.5 14C16.5 13.2044 16.8161 12.4413 17.3787 11.8787C17.9413 11.3161 18.7044 11 19.5 11C20.2956 11 21.0587 11.3161 21.6213 11.8787C22.1839 12.4413 22.5 13.2044 22.5 14C22.5 14.7956 22.1839 15.5587 21.6213 16.1213C21.0587 16.6839 20.2956 17 19.5 17ZM15 23C15 21.8065 15.4741 20.6619 16.318 19.818C17.1619 18.9741 18.3065 18.5 19.5 18.5C20.6935 18.5 21.8381 18.9741 22.682 19.818C23.5259 20.6619 24 21.8065 24 23H15Z" fill="#696977"/>
</svg>
