<svg width="40" height="40" viewBox="0 0 40 40" fill="none" xmlns="http://www.w3.org/2000/svg">
<path d="M20 35C28.2845 35 35 28.2845 35 20C35 11.7155 28.2845 5 20 5C11.7155 5 5 11.7155 5 20C5 28.2845 11.7155 35 20 35Z" stroke="#696977" stroke-width="2" stroke-linecap="round" stroke-linejoin="round"/>
<path d="M24.5 14.75C23.4725 13.7225 21.6635 13.0085 20 12.9635M20 12.9635C18.02 12.9095 16.25 13.805 16.25 16.25C16.25 20.75 24.5 18.5 24.5 23C24.5 25.5665 22.304 26.669 20 26.5865M20 12.9635V10.25M15.5 24.5C16.466 25.79 18.2645 26.525 20 26.5865M20 26.5865V29.75" stroke="#696977" stroke-width="2" stroke-linecap="round" stroke-linejoin="round"/>
</svg>
