<svg width="40" height="40" viewBox="0 0 40 40" fill="none" xmlns="http://www.w3.org/2000/svg">
<path d="M33 5H17V10.1546H19V7.06186H33C33.6 7.06186 34 7.47423 34 8.09278V19.433C34 20.0515 33.6 20.4639 33 20.4639H20V27.6804H14.7L11 30.6701V27.6804H8C7.4 27.6804 7 27.268 7 26.6495V15.3093C7 14.6907 7.4 14.2784 8 14.2784H21V12.2165H8C6.3 12.2165 5 13.5567 5 15.3093V26.6495C5 28.4021 6.3 29.7423 8 29.7423H9V35L15.3 29.7423H22V22.5258H33C34.7 22.5258 36 21.1856 36 19.433V8.09278C36 6.34021 34.7 5 33 5Z" fill="#696977"/>
<path d="M9.19922 25.5156H11.5992L12.1992 23.8661H15.2992L15.8992 25.5156H18.2992L14.8992 16.3403H12.4992L9.19922 25.5156ZM13.6992 18.9177L14.6992 22.1135H12.6992L13.6992 18.9177Z" fill="#696977"/>
<path d="M23 19.433C24.1 19.433 25.6 19.1237 27 18.4021C28.4 19.1237 30 19.433 31 19.433V17.3711C31 17.3711 30 17.3711 28.9 16.9588C30.1 15.7216 31 13.866 31 11.1856V10.1546H28V8.09277H26V10.1546H23V12.2165H28.9C28.7 14.0722 27.9 15.2062 27 15.9278C26.4 15.4124 25.8 14.6907 25.4 13.7629H23.3C23.7 15.1031 24.3 16.134 25.1 16.9588C24.1 17.3711 23.2 17.3711 23 17.3711V19.433Z" fill="#696977"/>
</svg>
