<svg width="40" height="40" viewBox="0 0 40 40" fill="none" xmlns="http://www.w3.org/2000/svg">
<path d="M20 5C11.7292 5 5 11.7292 5 20C5 28.2708 11.7292 35 20 35C28.2708 35 35 28.2708 35 20C35 11.7292 28.2708 5 20 5ZM20 7.30769C27.0235 7.30769 32.6923 12.9765 32.6923 20C32.6923 27.0235 27.0235 32.6923 20 32.6923C12.9765 32.6923 7.30769 27.0235 7.30769 20C7.30769 12.9765 12.9765 7.30769 20 7.30769ZM18.8462 13.0769V18.8462H13.0769V21.1538H18.8462V26.9231H21.1538V21.1538H26.9231V18.8462H21.1538V13.0769H18.8462Z" fill="#696977"/>
</svg>
