<svg width="40" height="40" viewBox="0 0 40 40" fill="none" xmlns="http://www.w3.org/2000/svg">
<path fill-rule="evenodd" clip-rule="evenodd" d="M15.9974 8.28227C16.4812 6.6576 17.8999 5 20.0014 5C22.1035 5 23.5209 6.65767 24.0083 8.27927C24.0107 8.2823 24.014 8.28611 24.0182 8.2905C24.0282 8.30092 24.0395 8.3105 24.0502 8.31793C24.0583 8.32359 24.0633 8.32602 24.0638 8.32631C25.2872 8.82998 26.727 9.63453 27.8532 11.1075C28.9884 12.5924 29.7269 14.6537 29.7269 17.5295C29.7269 20.3968 30.0294 21.9691 30.4749 23.0485C30.8655 23.9949 31.3791 24.617 32.11 25.5023C32.2167 25.6316 32.3281 25.7665 32.4444 25.9088C33.7914 27.5588 32.5197 29.8764 30.4448 29.8764H9.56483C7.49372 29.8764 6.20033 27.5709 7.55848 25.9088C7.67488 25.7664 7.78634 25.6314 7.89316 25.502C8.62391 24.6169 9.1376 23.9947 9.52854 23.0482C9.97442 21.9687 10.2777 20.3964 10.2794 17.5295M15.9974 8.28227C15.9956 8.28448 15.9932 8.2871 15.9904 8.29005C15.9812 8.2996 15.9703 8.30882 15.9594 8.3163C15.9493 8.32324 15.9433 8.32595 15.9433 8.32596C14.7194 8.82994 13.2784 9.63323 12.1522 11.1059C11.017 12.5902 10.2795 14.6518 10.2794 17.5295M20.0014 7.16317C19.1687 7.16317 18.3734 7.85757 18.0657 8.9164L18.0649 8.91909C17.8665 9.59526 17.317 10.0999 16.7663 10.3264C16.7662 10.3265 16.7664 10.3264 16.7663 10.3264C15.7331 10.7519 14.6766 11.3659 13.8704 12.42C13.0732 13.4624 12.4425 15.0381 12.4425 17.5295C12.4408 20.5196 12.1296 22.4173 11.5279 23.874C11.0044 25.1413 10.2737 26.022 9.54868 26.8958C9.44332 27.0228 9.33808 27.1496 9.23361 27.2775C9.19056 27.3302 9.17845 27.3734 9.1755 27.406C9.17217 27.4428 9.1791 27.4869 9.20226 27.5322C9.24246 27.611 9.34254 27.7133 9.56483 27.7133H30.4448C30.6591 27.7133 30.7575 27.6144 30.7985 27.5335C30.8425 27.4468 30.837 27.3606 30.7693 27.2775C30.6649 27.1497 30.5597 27.0229 30.4544 26.896C29.7293 26.0221 28.9985 25.1413 28.4753 23.8737C27.874 22.4168 27.5637 20.5196 27.5637 17.5295C27.5637 15.0413 26.9327 13.4651 26.1347 12.4214C25.3278 11.366 24.2711 10.7509 23.24 10.3265C22.6832 10.0974 22.1395 9.58571 21.9423 8.92082L21.9415 8.91807C21.6297 7.85705 20.8342 7.16317 20.0014 7.16317Z" fill="#696977"/>
<path fill-rule="evenodd" clip-rule="evenodd" d="M15.675 27.7133C16.2724 27.7133 16.7566 28.1975 16.7566 28.7948V29.8764C16.7566 30.737 17.0985 31.5623 17.707 32.1708C18.3155 32.7793 19.1408 33.1212 20.0014 33.1212C20.8619 33.1212 21.6872 32.7793 22.2957 32.1708C22.9043 31.5623 23.2461 30.737 23.2461 29.8764V28.7948C23.2461 28.1975 23.7304 27.7133 24.3277 27.7133C24.925 27.7133 25.4093 28.1975 25.4093 28.7948V29.8764C25.4093 31.3107 24.8395 32.6862 23.8253 33.7004C22.8112 34.7146 21.4356 35.2843 20.0014 35.2843C18.5671 35.2843 17.1916 34.7146 16.1774 33.7004C15.1632 32.6862 14.5934 31.3107 14.5934 29.8764V28.7948C14.5934 28.1975 15.0777 27.7133 15.675 27.7133Z" fill="#696977"/>
</svg>
