<svg width="22" height="22" viewBox="0 0 22 22" fill="none" xmlns="http://www.w3.org/2000/svg">
<g clip-path="url(#clip0_1143_913)">
<path d="M7.05488 1.32662L16.6454 10.2115C16.7578 10.3147 16.8469 10.4375 16.9078 10.5729C16.9687 10.7082 17 10.8534 17 11C17 11.1466 16.9687 11.2918 16.9078 11.4271C16.8469 11.5625 16.7578 11.6853 16.6454 11.7885L7.05488 20.6734C6.82914 20.8825 6.52297 21 6.20372 21C5.88447 21 5.5783 20.8825 5.35256 20.6734C5.12682 20.4642 5 20.1806 5 19.8848C5 19.5891 5.12682 19.3055 5.35256 19.0963L14.1039 11L5.35256 2.90368C5.12682 2.69455 5 2.41091 5 2.11515C5 1.8194 5.12682 1.53575 5.35256 1.32662C5.5783 1.11749 5.88447 1 6.20372 1C6.52297 1 6.82914 1.11749 7.05488 1.32662Z" fill="#686868"/>
</g>
<defs>
<clipPath id="clip0_1143_913">
<rect width="22" height="22" fill="white"/>
</clipPath>
</defs>
</svg>
