<svg width="22" height="22" viewBox="0 0 22 22" fill="none" xmlns="http://www.w3.org/2000/svg">
<path d="M2.29421 14.2957L10.2942 6.29567C10.3872 6.20195 10.4978 6.12755 10.6196 6.07678C10.7415 6.02601 10.8722 5.99988 11.0042 5.99988C11.1362 5.99988 11.2669 6.02601 11.3888 6.07678C11.5106 6.12755 11.6212 6.20195 11.7142 6.29567L19.7142 14.2957C19.9025 14.484 20.0083 14.7394 20.0083 15.0057C20.0083 15.272 19.9025 15.5274 19.7142 15.7157C19.5259 15.904 19.2705 16.0098 19.0042 16.0098C18.7379 16.0098 18.4825 15.904 18.2942 15.7157L11.0042 8.41567L3.71421 15.7157C3.52591 15.904 3.27051 16.0098 3.00421 16.0098C2.73791 16.0098 2.48251 15.904 2.29421 15.7157C2.10591 15.5274 2.00012 15.272 2.00012 15.0057C2.00012 14.7394 2.10591 14.484 2.29421 14.2957Z" fill="#686868"/>
</svg>
