<svg width="22" height="22" viewBox="0 0 22 22" fill="none" xmlns="http://www.w3.org/2000/svg">
<path d="M19.7141 7.71409L11.7141 15.7141C11.6211 15.8078 11.5105 15.8822 11.3887 15.933C11.2668 15.9838 11.1361 16.0099 11.0041 16.0099C10.8721 16.0099 10.7414 15.9838 10.6195 15.933C10.4977 15.8822 10.3871 15.8078 10.2941 15.7141L2.29409 7.71409C2.10579 7.52579 2 7.27039 2 7.00409C2 6.73779 2.10579 6.4824 2.29409 6.29409C2.4824 6.10579 2.73779 6 3.00409 6C3.27039 6 3.52579 6.10579 3.71409 6.29409L11.0041 13.5941L18.2941 6.29409C18.4824 6.10579 18.7378 6 19.0041 6C19.2704 6 19.5258 6.10579 19.7141 6.29409C19.9024 6.4824 20.0082 6.73779 20.0082 7.00409C20.0082 7.27039 19.9024 7.52579 19.7141 7.71409Z" fill="#6D6D6D"/>
</svg>
