<svg width="28" height="28" viewBox="0 0 28 28" fill="none" xmlns="http://www.w3.org/2000/svg">
<path d="M20.4277 17.0908C20.4916 16.8611 20.4838 16.6256 20.4026 16.3951C20.2666 16.0094 19.9309 15.6551 19.4378 15.3768L15.3193 13.0556C15.2093 12.9942 15.0789 12.9455 14.9355 12.9125L20.4277 17.0908ZM20.4277 17.0908H20.166V17.5177V17.5179V17.5908L20.5577 17.9016C20.5737 17.8814 20.5896 17.8606 20.6053 17.8391M20.4277 17.0908L20.2655 17.5908L20.6046 17.84C20.6048 17.8397 20.6051 17.8394 20.6053 17.8391M20.6053 17.8391C20.6643 17.7587 20.7166 17.6758 20.7619 17.5908H21.2133C21.9523 17.5908 22.661 17.8399 23.1836 18.2831C23.7061 18.7264 23.9996 19.3276 23.9996 19.9544C23.9996 20.5813 23.7061 21.1825 23.1836 21.6258L20.6053 17.8391ZM5.85294 13.6897H6.35294H14.0013H14.1325L14.2468 13.7541L18.0111 15.8756C18.0113 15.8757 18.0115 15.8758 18.0118 15.876C18.1674 15.9632 18.3139 16.0791 18.4248 16.2286C18.4249 16.2287 18.425 16.2288 18.4251 16.2289L18.0234 16.5267C18.0831 16.6071 18.1141 16.6933 18.1147 16.7804L5.85294 13.6897ZM5.85294 13.6897V14.1897V17.6617V18.1617H6.35294H8.20922L5.85294 13.6897ZM6.35294 18.7375H5.85294V19.2375V22.3182C5.85294 22.6947 5.54769 23 5.17112 23H4.5V21.6363H4.78431H5.28431V21.1363V12.8636V12.3636H4.78431H4.5V11H5.17112C5.54768 11 5.85294 11.3053 5.85294 11.6818V12.8633V13.3633H6.35294L14.4838 13.3633L14.4854 13.3633C14.604 13.3629 14.7193 13.3758 14.8233 13.3998L14.8233 13.3998C14.9277 13.4238 15.0123 13.4569 15.0748 13.4917C15.075 13.4919 15.0752 13.492 15.0754 13.4921L19.192 15.8122C19.6202 16.0539 19.8484 16.327 19.931 16.5613C20.0057 16.7733 19.9796 17.0019 19.7988 17.2478L19.7974 17.2497C19.7904 17.2594 19.7827 17.2695 19.7743 17.28L19.1309 18.0908H20.166H21.2133C21.8438 18.0908 22.4353 18.304 22.8602 18.6644C23.2825 19.0227 23.4996 19.4893 23.4996 19.9544C23.4996 20.4197 23.2824 20.8862 22.8602 21.2445C22.4353 21.6048 21.8438 21.8181 21.2133 21.8181L11.9253 21.8181L11.9229 21.8181C11.788 21.8188 11.6704 21.7742 11.5928 21.7113L8.14867 18.8528L8.00981 18.7375H7.82934H6.35294ZM17.5067 17.8815C17.6878 17.8388 17.863 17.7741 18.0197 17.6851C18.0197 17.6851 18.0196 17.6851 18.0196 17.6852L17.7728 17.2503L17.5067 17.8815Z" fill="white" stroke="white"/>
<path d="M21 14C22.3807 14 23.5 12.8807 23.5 11.5C23.5 10.1193 22.3807 9 21 9C19.6193 9 18.5 10.1193 18.5 11.5C18.5 12.8807 19.6193 14 21 14Z" stroke="white"/>
<path d="M19 9C20.3807 9 21.5 7.88071 21.5 6.5C21.5 5.11929 20.3807 4 19 4C17.6193 4 16.5 5.11929 16.5 6.5C16.5 7.88071 17.6193 9 19 9Z" stroke="white"/>
</svg>
