<svg width="28" height="28" viewBox="0 0 28 28" fill="none" xmlns="http://www.w3.org/2000/svg">
<path d="M11 18L14 15M14 15L17 18M14 15V22M24 11H4M7.5 20H7.2C6.0799 20 5.51984 20 5.09202 19.782C4.71569 19.5903 4.40973 19.2843 4.21799 18.908C4 18.4802 4 17.9201 4 16.8V9.2C4 8.0799 4 7.51984 4.21799 7.09202C4.40973 6.71569 4.7157 6.40973 5.09202 6.21799C5.51984 6 6.0799 6 7.2 6H20.8C21.9201 6 22.4802 6 22.908 6.21799C23.2843 6.40974 23.5903 6.7157 23.782 7.09202C24 7.51984 24 8.0799 24 9.2V16.8C24 17.9201 24 18.4802 23.782 18.908C23.5903 19.2843 23.2843 19.5903 22.908 19.782C22.4802 20 21.9201 20 20.8 20H20.5" stroke="white" stroke-linecap="round" stroke-linejoin="round"/>
</svg>
