<svg width="22" height="22" viewBox="0 0 22 22" fill="none" xmlns="http://www.w3.org/2000/svg">
<path d="M6.87486 5.76318H5.92491C5.42102 5.76318 4.93777 5.96335 4.58147 6.31966C4.22516 6.67596 4.02499 7.15921 4.02499 7.6631V16.2127C4.02499 16.7166 4.22516 17.1998 4.58147 17.5561C4.93777 17.9124 5.42102 18.1126 5.92491 18.1126H14.4745C14.9784 18.1126 15.4617 17.9124 15.818 17.5561C16.1743 17.1998 16.3744 16.7166 16.3744 16.2127V15.2627" stroke="white" stroke-linecap="round" stroke-linejoin="round"/>
<path d="M15.1161 4.61948L17.5174 7.02074M18.626 5.88814C18.9412 5.5729 19.1183 5.14534 19.1183 4.69952C19.1183 4.2537 18.9412 3.82614 18.626 3.5109C18.3107 3.19566 17.8832 3.01855 17.4373 3.01855C16.9915 3.01855 16.564 3.19566 16.2487 3.5109L9.51318 10.2224V12.6237H11.9144L18.626 5.88814Z" stroke="white" stroke-linecap="round" stroke-linejoin="round"/>
</svg>
