<svg width="28" height="28" viewBox="0 0 28 28" fill="none" xmlns="http://www.w3.org/2000/svg">
<path d="M8 8L10 6M10 6L8 4M10 6H8C5.79086 6 4 7.79086 4 10M20 20L18 22M18 22L20 24M18 22H20C22.2091 22 24 20.2091 24 18M15.4172 15.4172C16.1994 15.7908 17.0753 16 18 16C21.3137 16 24 13.3137 24 10C24 6.68629 21.3137 4 18 4C14.6863 4 12 6.68629 12 10C12 10.9247 12.2092 11.8006 12.5828 12.5828M16 18C16 21.3137 13.3137 24 10 24C6.68629 24 4 21.3137 4 18C4 14.6863 6.68629 12 10 12C13.3137 12 16 14.6863 16 18Z" stroke="white" stroke-linecap="round" stroke-linejoin="round"/>
</svg>
