<svg width="28" height="28" viewBox="0 0 28 28" fill="none" xmlns="http://www.w3.org/2000/svg">
<path d="M14 17C15.6569 17 17 15.6569 17 14C17 12.3431 15.6569 11 14 11C12.3431 11 11 12.3431 11 14C11 15.6569 12.3431 17 14 17Z" fill="white"/>
<path d="M20.5072 8.61781C18.4578 7.2125 16.2645 6.5 13.9887 6.5C11.9408 6.5 9.94438 7.10937 8.05484 8.30375C6.14937 9.51078 4.28141 11.7031 2.75 14C3.98844 16.0625 5.6825 18.1831 7.44687 19.3991C9.47094 20.7931 11.6717 21.5 13.9887 21.5C16.2856 21.5 18.4817 20.7936 20.5184 19.4005C22.3114 18.1719 24.0177 16.0541 25.25 14C24.0134 11.9642 22.3016 9.84875 20.5072 8.61781ZM14 18.5C13.11 18.5 12.24 18.2361 11.4999 17.7416C10.7599 17.2471 10.1831 16.5443 9.84254 15.7221C9.50195 14.8998 9.41283 13.995 9.58647 13.1221C9.7601 12.2492 10.1887 11.4474 10.818 10.818C11.4474 10.1887 12.2492 9.7601 13.1221 9.58647C13.995 9.41283 14.8998 9.50195 15.7221 9.84254C16.5443 10.1831 17.2471 10.7599 17.7416 11.4999C18.2361 12.24 18.5 13.11 18.5 14C18.4986 15.1931 18.0241 16.3369 17.1805 17.1805C16.3369 18.0241 15.1931 18.4986 14 18.5Z" fill="white"/>
</svg>
