<svg width="28" height="28" viewBox="0 0 28 28" fill="none" xmlns="http://www.w3.org/2000/svg">
<path d="M6.28107 5L5.24991 6.03116L22.2188 23.0001L23.25 21.9689L6.28107 5Z" fill="white"/>
<path d="M14.4066 11.0039L17.2458 13.8431C17.2063 13.1029 16.8945 12.4035 16.3704 11.8793C15.8462 11.3552 15.1468 11.0434 14.4066 11.0039Z" fill="white"/>
<path d="M14.0934 16.9955L11.2542 14.1563C11.2937 14.8965 11.6054 15.5959 12.1296 16.1201C12.6537 16.6442 13.3532 16.956 14.0934 16.9955Z" fill="white"/>
<path d="M14.25 18.4997C13.5577 18.4997 12.8748 18.34 12.2543 18.033C11.6338 17.7261 11.0925 17.28 10.6725 16.7297C10.2525 16.1794 9.96514 15.5395 9.83279 14.86C9.70043 14.1805 9.72664 13.4796 9.90938 12.8119L6.67172 9.57376C5.34938 10.785 4.08938 12.3656 3 13.9997C4.23844 16.0622 5.9325 18.1828 7.69688 19.3988C9.72094 20.7928 11.9217 21.4997 14.2388 21.4997C15.505 21.5006 16.7617 21.2817 17.9531 20.8528L15.4402 18.3403C15.0524 18.4465 14.6521 18.5001 14.25 18.4997Z" fill="white"/>
<path d="M14.25 9.4997C14.9423 9.49967 15.6252 9.65936 16.2457 9.96635C16.8662 10.2733 17.4075 10.7194 17.8275 11.2697C18.2475 11.82 18.5349 12.4599 18.6672 13.1394C18.7996 13.8189 18.7734 14.5198 18.5906 15.1875L21.9028 18.4997C23.2692 17.2692 24.5311 15.6141 25.5 13.9997C24.2634 11.9639 22.5516 9.84845 20.7572 8.61751C18.7078 7.2122 16.5145 6.4997 14.2387 6.4997C12.9864 6.5015 11.7447 6.72839 10.5726 7.16954L13.0622 9.65908C13.4492 9.55314 13.8487 9.49954 14.25 9.4997Z" fill="white"/>
</svg>
