<svg width="22" height="22" viewBox="0 0 22 22" fill="none" xmlns="http://www.w3.org/2000/svg">
<path fill-rule="evenodd" clip-rule="evenodd" d="M11.474 20.948C13.9867 20.948 16.3964 19.9499 18.1731 18.1731C19.9499 16.3964 20.948 13.9867 20.948 11.474C20.948 8.96134 19.9499 6.55159 18.1731 4.77487C16.3964 2.99815 13.9867 2 11.474 2C8.96134 2 6.55159 2.99815 4.77487 4.77487C2.99815 6.55159 2 8.96134 2 11.474C2 13.9867 2.99815 16.3964 4.77487 18.1731C6.55159 19.9499 8.96134 20.948 11.474 20.948ZM15.27 4.37C15.4007 4.55867 15.524 4.754 15.64 4.956C16.154 5.849 16.56 6.906 16.829 8.072C17.1983 8.16867 17.5467 8.27467 17.874 8.39C18.324 8.55 18.744 8.73 19.117 8.932C18.4638 6.97616 17.0875 5.34407 15.27 4.37ZM19.283 13.45C18.869 13.69 18.393 13.901 17.873 14.084C17.5777 14.1887 17.265 14.2853 16.935 14.374C16.672 15.739 16.227 16.973 15.64 17.992C15.5252 18.1926 15.4017 18.3881 15.27 18.578C16.2585 18.0488 17.1259 17.3194 17.8168 16.4363C18.5078 15.5532 19.0071 14.5368 19.283 13.45ZM7.678 18.577C7.54626 18.3871 7.42281 18.1916 7.308 17.991C6.721 16.971 6.276 15.738 6.013 14.373C5.683 14.2843 5.37 14.1877 5.074 14.083C4.58616 13.915 4.11484 13.7025 3.666 13.448C3.94177 14.5347 4.44094 15.552 5.13171 16.4351C5.82247 17.3182 6.68967 18.0477 7.678 18.577ZM3.831 8.932C4.23111 8.72033 4.64663 8.53915 5.074 8.39C5.402 8.27467 5.75067 8.16867 6.12 8.072C6.389 6.906 6.794 5.849 7.308 4.956C7.42467 4.754 7.548 4.55867 7.678 4.37C5.86053 5.34407 4.48424 6.97616 3.831 8.932ZM14.409 5.666C14.754 6.265 15.049 6.966 15.276 7.746C14.318 7.587 13.276 7.488 12.185 7.457V3.584C12.977 3.843 13.757 4.534 14.409 5.666ZM15.611 9.25C14.4811 9.03302 13.3352 8.90927 12.185 8.88V13.595C13.3587 13.5646 14.5278 13.4358 15.68 13.21C15.7493 12.6513 15.7843 12.0727 15.785 11.474C15.785 10.7 15.724 9.954 15.611 9.25ZM10.764 3.584V7.457C9.673 7.487 8.631 7.587 7.673 7.745C7.9 6.966 8.194 6.265 8.539 5.665C9.191 4.534 9.972 3.842 10.764 3.584ZM10.764 8.88C9.61343 8.90955 8.46724 9.03363 7.337 9.251C7.13043 10.5614 7.10721 11.8942 7.268 13.211C8.302 13.421 9.488 13.559 10.764 13.596V8.88ZM5.548 9.731C5.646 9.69567 5.74667 9.66167 5.85 9.629C5.72424 10.6918 5.70748 11.7648 5.8 12.831C5.714 12.803 5.63 12.7743 5.548 12.745C4.803 12.482 4.251 12.185 3.898 11.891C3.542 11.594 3.468 11.37 3.468 11.238C3.468 11.107 3.542 10.883 3.898 10.585C4.251 10.291 4.803 9.994 5.548 9.731ZM8.539 17.283C8.122 16.56 7.779 15.687 7.54 14.708C8.534 14.878 9.622 14.986 10.763 15.018V19.365C9.972 19.106 9.191 18.415 8.539 17.283ZM12.185 19.365V15.018C13.2653 14.9905 14.3423 14.8869 15.408 14.708C15.168 15.687 14.826 16.56 14.408 17.283C13.757 18.415 12.977 19.106 12.185 19.365ZM17.204 11.474C17.204 11.934 17.185 12.386 17.147 12.83C17.233 12.802 17.317 12.7733 17.399 12.744C18.144 12.481 18.696 12.184 19.049 11.89C19.405 11.593 19.479 11.369 19.479 11.237C19.479 11.106 19.405 10.882 19.049 10.584C18.696 10.29 18.144 9.993 17.399 9.73C17.2989 9.6944 17.1982 9.66039 17.097 9.628C17.1683 10.228 17.2043 10.8433 17.205 11.474" fill="#686868"/>
</svg>
