<svg width="28" height="28" viewBox="0 0 28 28" fill="none" xmlns="http://www.w3.org/2000/svg">
<path d="M15 7C15 8.10457 12.5376 9 9.5 9C6.46243 9 4 8.10457 4 7M15 7C15 5.89543 12.5376 5 9.5 5C6.46243 5 4 5.89543 4 7M15 7V8.5M4 7V19C4 20.1046 6.46243 21 9.5 21M9.5 13C9.33145 13 9.16468 12.9972 9 12.9918C6.19675 12.9 4 12.0433 4 11M9.5 17C6.46243 17 4 16.1046 4 15M24 13.5C24 14.6046 21.5376 15.5 18.5 15.5C15.4624 15.5 13 14.6046 13 13.5M24 13.5C24 12.3954 21.5376 11.5 18.5 11.5C15.4624 11.5 13 12.3954 13 13.5M24 13.5V21C24 22.1046 21.5376 23 18.5 23C15.4624 23 13 22.1046 13 21V13.5M24 17.25C24 18.3546 21.5376 19.25 18.5 19.25C15.4624 19.25 13 18.3546 13 17.25" stroke="white" stroke-linecap="round" stroke-linejoin="round"/>
</svg>
